<?xml version="1.0" encoding="UTF-8"?>
<svg id="uuid-e16ecf45-dfae-4807-a1b1-07eb8b7697f2" data-name="Layer_1" xmlns="http://www.w3.org/2000/svg" viewBox="0 0 200 40">
  <defs>
    <style>
      .uuid-47ffb31f-5b38-41e1-bff9-ac3b97648104 {
        fill: #2772cc;
      }

      .uuid-cf5ffbc1-d78d-45b3-8647-732deca90e45 {
        fill: #e5e5e5;
      }
    </style>
  </defs>
  <g>
    <path class="uuid-cf5ffbc1-d78d-45b3-8647-732deca90e45" d="M5.32,26.29c-3.9,0-4.62-2.29-4.46-4.89h3.15c0,1.44.06,2.65,1.79,2.65,1.06,0,1.58-.69,1.58-1.71,0-2.71-6.33-2.87-6.33-7.35,0-2.35,1.12-4.23,4.96-4.23,3.06,0,4.58,1.38,4.37,4.52h-3.06c0-1.12-.19-2.27-1.46-2.27-1.02,0-1.62.56-1.62,1.6,0,2.85,6.33,2.6,6.33,7.33,0,3.89-2.85,4.35-5.25,4.35Z"/>
    <path class="uuid-cf5ffbc1-d78d-45b3-8647-732deca90e45" d="M18.47,11h3.46l-4.21,6.75,4.21,8.29h-3.54l-3.6-7.71h-.04v7.71h-3.15v-15.04h3.15v6.44h.04l3.69-6.44Z"/>
    <path class="uuid-cf5ffbc1-d78d-45b3-8647-732deca90e45" d="M22.32,26.04v-15.04h3.15v15.04h-3.15Z"/>
    <path class="uuid-cf5ffbc1-d78d-45b3-8647-732deca90e45" d="M27.09,26.04v-15.04h3.15v12.54h4.71v2.5h-7.85Z"/>
    <path class="uuid-cf5ffbc1-d78d-45b3-8647-732deca90e45" d="M35.3,26.04v-15.04h3.15v12.54h4.71v2.5h-7.85Z"/>
    <path class="uuid-cf5ffbc1-d78d-45b3-8647-732deca90e45" d="M48.2,19.36v2.12h-5.1v-2.12h5.1Z"/>
    <path class="uuid-47ffb31f-5b38-41e1-bff9-ac3b97648104" d="M49.24,18.52c0-3.98,0-7.77,5.19-7.77,3.21,0,4.5,1.77,4.37,5h-3.08c0-2-.35-2.75-1.29-2.75-1.77,0-2,1.67-2,5.52s.23,5.52,2,5.52c1.46,0,1.4-1.87,1.44-3.06h3.1c0,4.02-1.6,5.31-4.54,5.31-5.19,0-5.19-3.83-5.19-7.77Z"/>
    <path class="uuid-47ffb31f-5b38-41e1-bff9-ac3b97648104" d="M58.78,26.04l4.17-15.04h4.15l4.08,15.04h-3.31l-.83-3.33h-4.29l-.85,3.33h-3.1ZM64.84,13.9h-.04l-1.44,6.5h3l-1.52-6.5Z"/>
    <path class="uuid-47ffb31f-5b38-41e1-bff9-ac3b97648104" d="M71.63,11h5.67c2.88,0,4,1.75,4,4.5,0,1.71-.5,4.42-4.19,4.42h-2.33v6.12h-3.15v-15.04ZM74.78,17.61h1.75c.94,0,1.58-1.02,1.58-2.02,0-1.23-.33-2.27-1.75-2.27h-1.58v4.29Z"/>
    <path class="uuid-47ffb31f-5b38-41e1-bff9-ac3b97648104" d="M82.17,11h5.67c2.88,0,4,1.75,4,4.5,0,1.71-.5,4.42-4.19,4.42h-2.33v6.12h-3.15v-15.04ZM85.32,17.61h1.75c.94,0,1.58-1.02,1.58-2.02,0-1.23-.33-2.27-1.75-2.27h-1.58v4.29Z"/>
    <path class="uuid-47ffb31f-5b38-41e1-bff9-ac3b97648104" d="M92.69,26.04v-15.04h8.21v2.31h-5.06v3.71h4.67v2.31h-4.67v4.39h5.23v2.31h-8.37Z"/>
    <path class="uuid-47ffb31f-5b38-41e1-bff9-ac3b97648104" d="M102.13,11h5.25c4.12,0,4.89,2.75,4.89,7.44,0,2.31.35,7.6-5.02,7.6h-5.12v-15.04ZM105.28,23.73h1.52c1.92,0,2.29-1.44,2.29-5.21,0-2.77,0-5.21-2.19-5.21h-1.62v10.41Z"/>
  </g>
  <g>
    <path class="uuid-cf5ffbc1-d78d-45b3-8647-732deca90e45" d="M131.6,17.91c0,.17-.06.35-.19.56-.13.21-.3.43-.52.66s-.47.47-.76.71c-.29.25-.59.49-.92.74-.44.33-.9.65-1.39.95-.49.3-.99.57-1.49.81-.51.23-1.01.42-1.51.56-.5.14-.98.21-1.43.21-.54,0-1.01-.08-1.41-.23-.4-.15-.73-.37-.99-.66-.26-.28-.45-.63-.58-1.03-.13-.4-.19-.84-.19-1.33,0-.41.05-.82.14-1.25s.23-.85.39-1.26c.17-.42.37-.82.59-1.21.23-.39.47-.75.73-1.07.15-.19.33-.39.54-.59.21-.21.43-.41.66-.61s.47-.38.7-.56c.24-.17.46-.32.67-.45.15-.09.34-.19.57-.3.23-.11.47-.21.73-.31.25-.1.5-.18.75-.24.25-.07.46-.1.64-.1.32,0,.58.02.77.06.19.04.36.12.5.23.07.05.15.13.24.24s.17.23.25.35c.08.13.15.25.21.38.06.13.08.23.08.32,0,.06-.02.13-.05.23-.04.1-.08.2-.14.32-.06.11-.12.23-.19.35-.07.12-.14.24-.21.34-.07.11-.13.21-.19.29-.06.09-.11.15-.14.19-.21.25-.48.38-.8.38-.27,0-.48-.08-.63-.23s-.22-.34-.22-.57c0-.07.04-.18.12-.34.08-.15.21-.32.4-.51.09-.09.17-.18.23-.27s.12-.16.16-.23c-.12-.04-.24-.06-.36-.06-.15,0-.33.04-.55.11-.22.07-.45.17-.69.28-.24.11-.47.24-.7.37-.23.14-.42.27-.58.4-.44.35-.85.75-1.23,1.2s-.71.93-.96,1.45c-.1.21-.19.43-.28.67-.09.24-.17.48-.23.72s-.12.49-.16.73-.06.47-.06.69c0,.24.03.46.08.67.05.2.14.38.26.53.12.15.28.27.47.35.19.08.43.13.72.13.34,0,.69-.05,1.06-.14s.74-.22,1.12-.38c.38-.16.76-.34,1.14-.55.38-.21.75-.42,1.1-.65s.69-.46,1-.69c.31-.23.6-.45.85-.66.1-.08.21-.18.33-.28.12-.11.24-.22.37-.34s.25-.24.37-.36c.12-.12.23-.24.33-.34.11.06.2.11.26.15s.11.09.14.13c.03.04.05.09.06.15,0,.05.01.11.01.18Z"/>
    <path class="uuid-cf5ffbc1-d78d-45b3-8647-732deca90e45" d="M136.71,19.38c-.37.52-.74.98-1.12,1.4-.38.42-.75.78-1.12,1.07-.37.3-.74.52-1.09.68-.36.16-.7.24-1.03.24-.57,0-1.02-.23-1.34-.68-.33-.45-.49-1.12-.49-1.99,0-.46.03-.96.08-1.51.05-.55.13-1.1.22-1.67s.19-1.12.3-1.66c.11-.54.21-1.04.32-1.49.08-.37.18-.69.27-.96.1-.27.2-.49.32-.66.12-.17.25-.3.39-.38.14-.08.31-.12.49-.12.13,0,.24.03.32.08.08.05.15.12.2.2.05.08.08.18.1.29.02.11.03.22.03.33,0,.13-.03.32-.09.56s-.13.5-.22.77-.16.53-.24.78c-.08.25-.14.46-.18.61-.07.29-.13.64-.21,1.03-.07.39-.14.79-.2,1.21-.06.42-.11.83-.15,1.24-.04.41-.06.78-.06,1.12,0,.26.02.48.06.65.04.17.09.31.14.41.06.1.12.17.18.21.07.04.13.06.18.06.21,0,.45-.08.73-.25.28-.17.58-.38.89-.66s.64-.59.97-.94c.33-.36.64-.73.94-1.11.08-.12.16-.22.23-.29.07-.07.17-.11.29-.11.11,0,.19.04.25.11.06.07.09.16.09.25,0,.08-.01.17-.04.27-.02.1-.06.2-.1.31-.04.1-.09.21-.15.31-.05.1-.11.2-.17.29h0Z"/>
    <path class="uuid-cf5ffbc1-d78d-45b3-8647-732deca90e45" d="M141.51,20.32c-.16.16-.3.3-.44.44s-.28.27-.42.39-.29.24-.43.36c-.14.12-.3.24-.46.35-.33.24-.65.42-.97.55-.32.13-.62.2-.9.2-.33,0-.62-.06-.86-.17-.24-.11-.45-.26-.62-.45-.17-.19-.31-.41-.42-.66-.11-.25-.2-.51-.26-.79-.06-.28-.11-.56-.13-.84-.02-.28-.04-.55-.04-.81,0-.1,0-.24.02-.43.01-.19.04-.38.06-.59.03-.21.05-.41.08-.6.03-.19.06-.35.1-.47.04-.12.1-.24.18-.35.08-.11.19-.21.31-.31.25-.2.52-.3.82-.3s.46.18.46.55c0,.13-.01.28-.04.45-.03.18-.05.35-.08.53-.03.21-.05.4-.08.57-.02.17-.04.32-.06.45-.02.13-.03.26-.04.37s-.01.21-.01.31c0,.18.01.38.04.6.03.22.07.43.12.62.05.19.12.35.19.48.08.13.16.19.26.19.15,0,.31-.02.5-.05.18-.04.38-.11.59-.23.2-.11.41-.25.62-.4s.44-.33.66-.52c.21-.18.42-.37.63-.55.21-.18.41-.39.62-.6.09-.1.18-.19.26-.27.08-.08.15-.16.22-.23.07-.07.13-.14.2-.21.06-.07.13-.14.2-.22.02-.02.04-.05.07-.08s.06-.06.09-.09.07-.06.11-.08c.04-.02.08-.03.11-.03.05,0,.11.01.17.04.06.02.11.07.14.14.03.07.05.13.06.2,0,.06,0,.12,0,.16,0,.05-.03.12-.08.23-.05.11-.12.23-.21.37s-.18.29-.3.45c-.11.16-.23.32-.35.48-.12.16-.24.31-.36.46-.12.14-.23.27-.34.37ZM138.75,12.09c0,.16-.02.3-.07.44-.05.14-.12.27-.21.39-.18.25-.46.38-.83.38-.13,0-.26-.01-.4-.03-.14-.02-.26-.05-.37-.1-.11-.04-.2-.1-.27-.17s-.11-.14-.11-.23c0-.15.04-.3.12-.46s.18-.31.29-.45.25-.26.39-.35c.14-.09.28-.14.42-.14.17,0,.31.01.44.03.13.02.24.06.33.11.09.05.16.13.2.22.04.09.07.21.07.35Z"/>
    <path class="uuid-cf5ffbc1-d78d-45b3-8647-732deca90e45" d="M149.18,16.64c0,.51-.06.98-.17,1.41-.12.44-.29.85-.51,1.23-.23.39-.5.76-.82,1.11-.32.35-.69.7-1.1,1.04-.16.13-.33.25-.54.38s-.41.24-.63.33c-.22.09-.44.17-.67.23s-.44.09-.64.09-.4-.05-.57-.14c-.17-.09-.28-.22-.33-.39-.04.23-.08.44-.11.62-.03.19-.06.37-.08.54-.02.17-.04.34-.06.5-.02.17-.04.34-.06.53,0,.03-.02.12-.04.27-.02.15-.04.31-.06.48s-.05.34-.07.5-.04.27-.05.33c-.01.09-.05.19-.11.31-.06.12-.13.23-.22.33-.09.1-.18.19-.27.26-.1.07-.19.11-.27.11s-.18-.03-.29-.08c-.11-.05-.22-.12-.32-.2s-.18-.16-.25-.24-.1-.15-.1-.21c0-.04.01-.12.03-.24.02-.12.05-.27.08-.45s.07-.38.11-.59c.04-.22.09-.44.13-.66.04-.23.09-.45.13-.67.04-.22.08-.42.11-.6.07-.42.15-.86.25-1.32.09-.46.18-.94.27-1.42s.15-.98.21-1.47c.06-.5.09-.99.09-1.47v-.1c0-.06,0-.12,0-.2,0-.08,0-.16,0-.24v-.21c0-.18.02-.35.07-.52.05-.17.11-.33.2-.46s.19-.24.32-.33c.12-.08.27-.12.42-.12.08,0,.16.03.24.09s.16.15.22.26.12.24.16.38c.04.15.06.31.06.48,0,.14-.01.3-.04.5s-.06.4-.1.61c-.04.21-.08.42-.11.63-.04.21-.07.4-.09.57.26-.48.57-.92.93-1.33s.72-.77,1.09-1.08c.37-.31.71-.54,1.04-.72.33-.17.59-.26.79-.26.25,0,.48.05.69.14s.4.21.55.36.28.32.37.51c.09.19.13.38.13.58ZM147.63,17.17c0-.16-.01-.29-.04-.39-.03-.1-.06-.18-.09-.23-.04-.06-.07-.09-.11-.11-.04-.02-.07-.03-.09-.03-.16,0-.35.08-.58.24-.22.16-.46.37-.71.63-.25.26-.51.55-.77.88-.26.33-.5.66-.73,1-.06.09-.13.2-.22.34-.09.14-.17.29-.26.44-.08.15-.16.29-.22.43s-.09.24-.09.31c0,.03.01.06.04.11s.06.09.11.13.11.08.19.11c.08.03.16.05.26.05.18,0,.4-.06.63-.17.24-.11.48-.26.72-.46.24-.19.48-.42.72-.67.24-.26.45-.53.63-.82s.33-.59.44-.89.17-.6.17-.89Z"/>
    <path class="uuid-cf5ffbc1-d78d-45b3-8647-732deca90e45" d="M164.97,13.23c0,.15-.02.26-.07.35-.05.09-.1.16-.17.21-.07.05-.15.08-.23.1-.08.02-.16.02-.24.02-.17,0-.32,0-.46,0-.13,0-.27,0-.39-.01-.13,0-.26,0-.4-.01s-.3,0-.49,0c-.12,0-.25,0-.41.02-.15.01-.31.03-.48.06-.17.02-.33.05-.5.09-.17.03-.32.07-.46.1-.14.03-.27.07-.37.1s-.18.07-.23.1c-.03.02-.06.07-.09.16-.03.09-.04.16-.04.23l-.18,1.7c-.07.66-.14,1.31-.2,1.96-.06.64-.1,1.27-.1,1.9,0,.08,0,.21.02.37.01.16.03.32.05.47.02.16.04.29.05.41.01.12.02.18.02.19,0,.11-.02.23-.05.35-.04.12-.09.23-.15.32-.07.09-.15.17-.24.23-.1.06-.21.09-.33.09-.08,0-.17-.02-.26-.06s-.18-.09-.26-.16c-.08-.07-.16-.15-.23-.24-.07-.09-.12-.19-.16-.29-.04-.12-.08-.26-.1-.41-.02-.16-.04-.32-.06-.48-.01-.16-.02-.32-.03-.48,0-.16,0-.3,0-.43,0-.21.01-.48.04-.81.02-.32.05-.67.09-1.04.04-.37.07-.75.12-1.14.04-.39.08-.75.12-1.09s.08-.63.11-.88c.03-.25.05-.43.06-.53-.15,0-.34.01-.58.04-.23.03-.48.06-.75.09-.34.04-.69.08-1.05.12-.36.04-.7.06-1.02.06-.07,0-.16,0-.28-.02-.12-.01-.23-.04-.35-.07-.11-.04-.21-.09-.3-.15-.08-.06-.13-.15-.13-.25,0-.04-.01-.06-.02-.07,0-.01,0-.04,0-.09,0-.08,0-.16.02-.23.01-.08.04-.15.08-.21s.09-.12.17-.17.17-.09.28-.11c.26-.07.56-.12.89-.15.33-.04.65-.05.98-.05.06,0,.18,0,.34-.03.17-.02.36-.04.59-.07s.47-.06.72-.1.5-.07.74-.1c.23-.03.44-.06.63-.09s.32-.05.4-.06c.31-.06.62-.12.92-.18.31-.07.61-.13.92-.19s.61-.11.92-.15c.31-.04.61-.06.91-.06.04,0,.1,0,.18,0,.08,0,.18,0,.29.02.11,0,.22.02.34.04.12.02.23.04.34.08.08.02.15.07.21.13.06.06.12.13.16.21s.08.15.1.22.04.13.04.18Z"/>
    <path class="uuid-cf5ffbc1-d78d-45b3-8647-732deca90e45" d="M174.93,17.75c0,.06-.01.12-.03.2s-.05.16-.08.23-.07.15-.11.23-.08.14-.12.19c-.02.03-.06.08-.11.14-.05.06-.11.12-.18.2-.07.07-.14.15-.22.24-.08.09-.17.17-.25.26-.27.26-.55.51-.83.76-.28.25-.58.47-.88.66s-.63.35-.96.46c-.34.12-.69.18-1.07.18-.16,0-.32-.04-.49-.11-.17-.07-.32-.17-.46-.29-.14-.12-.27-.27-.37-.44s-.18-.36-.22-.56c-.08.14-.2.29-.33.46-.14.16-.29.33-.45.49-.16.16-.33.31-.51.46-.18.14-.34.27-.49.37-.1.07-.23.14-.38.22-.15.08-.31.15-.47.21-.17.06-.33.12-.5.16-.17.04-.32.06-.46.06-.23,0-.43-.06-.6-.2-.17-.13-.31-.29-.42-.48-.11-.19-.19-.39-.25-.6-.05-.21-.08-.4-.08-.57,0-.31.05-.63.14-.95.09-.32.21-.64.35-.95s.31-.6.48-.88c.18-.28.35-.53.52-.75.18-.23.39-.45.65-.68s.51-.43.79-.6c.27-.18.55-.32.81-.43.27-.11.51-.16.71-.16.11,0,.23,0,.35.01.12,0,.24.02.36.03s.23.04.34.06c.11.03.21.06.29.11.06.04.12.11.19.2.07.1.13.2.19.31.06.11.11.22.15.33.04.11.06.19.06.26,0,.13-.02.29-.06.47s-.08.37-.13.57-.1.4-.14.61-.06.41-.06.6c0,.13.02.27.06.4.04.14.09.26.16.37.07.11.16.2.25.27.1.07.21.11.33.11.28,0,.56-.05.83-.16s.55-.25.82-.43.55-.4.82-.65.55-.52.83-.81c0,0,.05-.04.11-.11.07-.07.15-.15.24-.23s.19-.16.29-.23c.1-.07.19-.11.27-.11.14,0,.23.04.27.12.04.08.06.2.06.37ZM168.48,17.02s0-.09-.03-.15-.04-.11-.06-.16c-.03-.05-.06-.09-.09-.13-.03-.04-.06-.05-.09-.05-.31,0-.6.08-.85.25s-.53.4-.81.69c-.16.16-.32.37-.5.63-.18.27-.34.55-.49.84-.15.3-.28.6-.38.89-.1.3-.15.56-.15.79,0,.06,0,.11.01.17,0,.05.02.1.04.15.02.04.05.08.09.11.04.03.09.04.15.04.18,0,.38-.06.61-.17.23-.12.46-.27.68-.45.23-.19.45-.4.67-.65s.4-.49.54-.75c.18-.31.33-.64.46-.98.13-.34.19-.7.19-1.06Z"/>
    <path class="uuid-cf5ffbc1-d78d-45b3-8647-732deca90e45" d="M178.49,17.1c-.04.31-.07.66-.09,1.04s-.05.8-.09,1.26c-.01.17-.03.37-.05.59s-.04.45-.07.69c-.03.23-.05.46-.08.69-.03.23-.06.42-.08.6-.04.27-.1.56-.16.87s-.15.61-.26.91-.23.59-.38.86c-.15.27-.33.51-.54.72-.21.21-.46.38-.73.5-.28.12-.6.18-.96.18-.22,0-.45-.03-.67-.08-.23-.05-.45-.12-.67-.21-.22-.09-.43-.2-.62-.32-.2-.12-.38-.25-.55-.39-.41-.34-.7-.66-.87-.97-.06-.1-.1-.19-.13-.26-.03-.08-.05-.16-.05-.25,0-.1.03-.19.1-.26.06-.07.14-.11.24-.11.04,0,.1.02.16.05.06.04.13.08.19.12s.12.09.16.13c.05.04.08.07.08.08.41.38.83.67,1.27.85.44.18.89.28,1.34.28.27,0,.5-.09.69-.27.18-.18.34-.4.46-.66.12-.27.21-.55.28-.87.07-.31.12-.6.17-.87.04-.28.08-.59.11-.93.03-.34.06-.68.09-1-.22.22-.46.44-.72.65-.26.21-.53.39-.82.55-.28.16-.57.29-.87.38-.3.1-.59.15-.88.15-.15,0-.29-.03-.43-.1-.13-.07-.25-.16-.35-.28-.1-.12-.18-.27-.23-.44-.06-.17-.08-.36-.08-.57,0-.26.05-.55.14-.86.09-.31.21-.62.36-.93.15-.31.31-.61.49-.9.18-.29.35-.55.52-.78.17-.23.38-.46.63-.71.25-.25.52-.48.81-.68.29-.21.59-.38.89-.51s.61-.2.89-.2c.17,0,.34.02.52.07.17.05.33.12.48.22.14.1.26.22.35.36.09.14.13.31.13.51,0,.08,0,.16-.01.25s-.02.19-.03.29c-.01.1-.02.2-.04.29-.01.09-.02.18-.03.26h0ZM176.92,18.32c.02-.15.05-.32.07-.52s.04-.45.07-.75c0-.16.02-.28.03-.36.01-.08.02-.15.02-.2,0-.1,0-.18-.02-.23-.01-.06-.05-.1-.11-.12-.06-.02-.15-.03-.27-.04-.21.14-.42.31-.63.51-.21.2-.41.41-.6.65s-.37.47-.54.72c-.17.25-.32.49-.44.73-.14.26-.25.51-.33.76-.08.25-.12.46-.12.64,0,.08.03.13.08.15s.11.04.18.04c.14,0,.3-.04.47-.11.18-.07.35-.16.53-.26.18-.1.35-.21.51-.32.16-.11.3-.21.42-.3.04-.03.1-.08.17-.15.07-.07.15-.15.22-.24.07-.09.14-.19.19-.3.06-.11.09-.21.1-.31Z"/>
    <path class="uuid-cf5ffbc1-d78d-45b3-8647-732deca90e45" d="M185.52,15.94s-.01.07-.04.12-.06.1-.09.15c-.03.05-.06.1-.09.15s-.04.09-.04.13c-.07.3-.12.6-.16.89-.04.29-.07.59-.09.89l-.2,3.66c-.03.6-.13,1.13-.29,1.59-.16.47-.37.86-.65,1.19-.27.32-.59.57-.97.74-.37.17-.79.25-1.25.25-.53,0-1.06-.11-1.6-.32s-1.08-.5-1.61-.84c-.04-.03-.11-.08-.19-.15-.08-.07-.17-.15-.25-.23s-.16-.18-.22-.28c-.06-.1-.1-.19-.1-.28,0-.06.02-.11.05-.16.04-.04.08-.08.13-.1.05-.03.11-.04.17-.06.06-.01.11-.02.16-.02.08,0,.18.03.3.08.12.05.25.12.39.19.14.08.28.16.42.24.14.08.28.15.4.21.1.05.22.1.37.16.15.06.31.11.48.16.17.05.35.09.54.12s.36.05.53.05c.25,0,.46-.05.64-.15.18-.1.34-.25.46-.46.13-.2.23-.45.32-.75.08-.3.15-.65.2-1.04.02-.15.04-.32.06-.51.02-.19.04-.4.06-.62.02-.22.04-.46.07-.71.03-.25.05-.5.08-.76-.06.09-.14.19-.24.29-.1.1-.21.2-.33.3-.12.1-.23.19-.35.28-.12.08-.23.16-.33.22-.06.04-.16.09-.28.17-.13.07-.27.15-.44.22-.17.07-.34.14-.53.19s-.37.08-.55.08c-.24,0-.46-.04-.66-.11s-.37-.17-.52-.28c-.14-.12-.26-.25-.34-.4-.08-.15-.12-.3-.12-.45,0-.21.04-.46.13-.75.08-.29.22-.61.4-.95.18-.35.42-.72.71-1.11.29-.39.63-.8,1.04-1.21.14-.14.31-.29.53-.45.22-.16.45-.31.71-.45s.51-.26.78-.35c.26-.09.51-.14.73-.14.16,0,.33.03.53.1s.38.16.55.28c.17.12.31.27.43.44s.17.36.17.58ZM183.97,15.86s-.01-.03-.04-.04c-.03,0-.06-.01-.08-.01-.49,0-1.08.35-1.77,1.05-.25.26-.48.54-.68.83-.2.3-.38.58-.52.84s-.26.5-.33.7-.12.33-.12.4c0,.13.02.22.07.27.05.05.1.08.16.08.15,0,.32-.04.52-.13.19-.09.39-.2.58-.33.19-.13.38-.26.55-.4.17-.14.31-.26.41-.36.16-.16.28-.29.38-.39.1-.1.18-.21.25-.31.07-.1.13-.22.18-.34s.11-.29.17-.5c.02-.07.05-.16.07-.28.02-.12.05-.24.07-.37.02-.13.05-.25.07-.38.02-.12.04-.23.06-.32Z"/>
    <path class="uuid-cf5ffbc1-d78d-45b3-8647-732deca90e45" d="M195.02,17.17s-.01.1-.04.18c-.03.08-.08.18-.14.28-.18.29-.42.61-.69.96-.28.35-.58.69-.92,1.03-.33.34-.69.67-1.07.99s-.77.6-1.16.85c-.39.25-.78.44-1.17.59-.39.15-.76.22-1.11.22-.45,0-.83-.06-1.16-.18s-.61-.3-.82-.54c-.22-.23-.38-.52-.49-.86-.11-.34-.16-.72-.16-1.15,0-.33.02-.67.07-1.04s.14-.73.27-1.11c.13-.38.31-.75.54-1.14s.51-.75.86-1.1c.27-.27.56-.48.87-.62s.61-.21.89-.21c.05,0,.12.01.2.03.08.02.16.05.24.09.08.04.16.08.23.13.08.05.14.11.18.17.15.19.26.38.34.55.08.17.11.37.11.59,0,.34-.05.65-.14.92s-.22.53-.39.77c-.16.24-.36.47-.58.69-.22.22-.46.45-.72.7-.16.15-.35.31-.58.48-.23.17-.48.36-.75.56.04.15.08.27.14.38s.13.19.21.27c.08.07.19.12.31.16.12.04.26.05.43.05.22,0,.46-.04.71-.11s.51-.17.76-.29c.22-.1.44-.23.66-.39s.44-.32.66-.49c.14-.1.31-.25.53-.45.22-.2.43-.4.66-.61.15-.14.3-.28.45-.42.15-.14.31-.29.48-.45l.38-.37c.27-.22.5-.33.67-.33.09,0,.15.03.17.08.02.05.04.1.04.15ZM189.51,16.41c0-.21-.03-.35-.1-.44-.06-.08-.14-.13-.22-.13-.07,0-.15.04-.25.13-.09.09-.19.2-.29.34-.1.14-.2.31-.31.5s-.2.39-.28.61c-.09.21-.16.43-.22.66-.06.22-.1.44-.12.65.14-.11.26-.22.37-.31.11-.09.22-.19.32-.29.1-.1.21-.22.34-.37.13-.14.25-.29.36-.45.11-.16.21-.31.29-.47s.12-.3.12-.43Z"/>
    <path class="uuid-cf5ffbc1-d78d-45b3-8647-732deca90e45" d="M200,16.63c0,.19-.06.35-.18.48-.12.13-.28.19-.46.19-.13,0-.24-.02-.34-.07s-.2-.1-.28-.16-.17-.11-.24-.16-.15-.07-.22-.07c-.08,0-.18.03-.28.08s-.2.13-.31.23c-.11.1-.22.21-.34.34s-.23.26-.34.4c-.08.1-.17.22-.27.36-.1.14-.2.29-.3.44-.1.15-.19.31-.28.46-.09.16-.17.3-.23.43-.06.12-.12.26-.19.41-.07.16-.13.31-.19.48-.06.16-.11.31-.16.46-.05.15-.08.27-.09.37-.03.18-.06.35-.08.51-.03.16-.07.29-.12.4s-.12.2-.2.26c-.08.06-.2.09-.34.09-.25,0-.45-.05-.57-.16s-.22-.25-.27-.42c-.05-.17-.09-.36-.1-.56,0-.2-.02-.4-.04-.59-.01-.12-.03-.25-.04-.37,0-.12-.02-.25-.02-.39,0-.13-.01-.28-.02-.43,0-.15,0-.32,0-.51,0-.24,0-.51.03-.81.02-.3.04-.58.07-.86.03-.27.05-.52.09-.73.03-.21.06-.35.08-.43.05-.13.11-.25.19-.37.08-.12.17-.22.27-.31.1-.09.2-.16.3-.21.11-.05.21-.08.31-.08.09,0,.18.01.27.04.09.02.17.06.25.12s.13.13.18.22c.05.09.07.21.07.34,0,.03-.01.09-.04.16s-.05.18-.09.32c-.04.15-.09.32-.14.51-.05.19-.1.39-.15.6-.04.2-.08.4-.12.6s-.05.38-.06.53c.02-.05.07-.14.13-.26s.13-.25.2-.38.14-.27.2-.39c.07-.12.12-.22.15-.27.14-.23.29-.48.47-.74.18-.26.38-.5.61-.72.23-.22.49-.4.78-.55s.61-.22.95-.22c.27,0,.49.04.69.12s.35.18.47.31.21.27.27.44c.06.16.09.33.09.5Z"/>
  </g>
</svg>