<?xml version="1.0" encoding="UTF-8"?><svg id="Layer_1" xmlns="http://www.w3.org/2000/svg" viewBox="0 0 150 30"><defs><style>.cls-1{fill:#232323;}.cls-2{fill:#0f2c4e;}.cls-3{fill:#e5e5e5;}.cls-4{fill:#194a7d;}.cls-5{fill:#191919;}.cls-6{fill:#fe4a57;}.cls-7{fill:#ffd200;}</style></defs><g><polygon class="cls-3" points="6.9 27.61 12.31 1.44 33.32 1.44 27.92 27.61 6.9 27.61"/><path class="cls-1" d="M32.71,1.94l-5.2,25.17H7.52L12.72,1.94h19.99m1.23-1H11.9L6.29,28.11H28.32L33.94,.94h0Z"/></g><g><polygon class="cls-5" points="28.94 27.61 34.35 1.44 55.36 1.44 49.95 27.61 28.94 27.61"/><path class="cls-1" d="M54.75,1.94l-5.2,25.17H29.55L34.75,1.94h19.99m1.23-1h-22.03l-5.61,27.17h22.03L55.97,.94h0Z"/></g><g><polygon class="cls-6" points="50.97 27.61 56.38 1.44 77.39 1.44 71.99 27.61 50.97 27.61"/><path class="cls-1" d="M76.78,1.94l-5.2,25.17h-19.99L56.79,1.94h19.99m1.23-1h-22.03l-5.61,27.17h22.03L78.01,.94h0Z"/></g><g><polygon class="cls-7" points="72.71 27.61 78.12 1.44 99.13 1.44 93.73 27.61 72.71 27.61"/><path class="cls-1" d="M98.52,1.94l-5.2,25.17h-19.99L78.53,1.94h19.99m1.23-1h-22.03l-5.61,27.17h22.03L99.75,.94h0Z"/></g><g><polygon class="cls-4" points="94.46 27.61 99.87 1.44 120.88 1.44 115.47 27.61 94.46 27.61"/><path class="cls-1" d="M120.26,1.94l-5.2,25.17h-19.99L100.27,1.94h19.99m1.23-1h-22.03l-5.61,27.17h22.03L121.49,.94h0Z"/></g><g><polygon class="cls-2" points="116.29 27.61 121.7 1.44 142.71 1.44 137.3 27.61 116.29 27.61"/><path class="cls-1" d="M142.1,1.94l-5.2,25.17h-19.99L122.1,1.94h19.99m1.23-1h-22.03l-5.61,27.17h22.03L143.32,.94h0Z"/></g></svg>