<?xml version="1.0" encoding="UTF-8"?><svg id="Layer_1" xmlns="http://www.w3.org/2000/svg" viewBox="0 0 72 30"><defs><style>.cls-1{fill:#4c4c4c;}.cls-2{fill:#232323;}</style></defs><path class="cls-1" d="m34.11,24.26c-.34,0-.6-.11-.78-.34-.35-.45-.36-1.34-.02-2.73l.51-2.13c.34-1.4.63-2.61.97-4.12.06-.28.2-.93.08-1.08,0-.01-.03-.04-.1-.04-.28,0-.85.42-1.48,1.08l-.11.12-.39-.61.06-.07c1.33-1.56,3.39-2.88,4.5-2.88.33,0,.56.09.72.29.34.42.3,1.25-.12,3.2l-.17.7c-.42,1.79-.84,3.57-1.27,5.33-.15.6-.07.79-.03.84.02.02.04.04.11.04.15,0,.66-.23,1.48-1.11l.11-.12.36.58-.05.07c-1.58,2.05-3.34,2.96-4.39,2.96Zm3.36-15.03c-.87,0-1.41-.6-1.41-1.55s.67-1.95,1.78-1.95c.92,0,1.33.77,1.33,1.53,0,.97-.63,1.98-1.7,1.98Z"/><path class="cls-2" d="m37.84,5.86c.81,0,1.21.67,1.21,1.4,0,.95-.62,1.85-1.57,1.85-.78,0-1.29-.53-1.29-1.43,0-.81.56-1.82,1.65-1.82m-.48,5.75c.98,0,1.01.9.48,3.34-.48,2.02-.95,4.04-1.43,6.03-.2.79-.06,1.04.2,1.04.2,0,.73-.25,1.57-1.15l.22.36c-1.6,2.08-3.34,2.92-4.29,2.92-.9,0-1.18-.87-.67-2.92.59-2.47.98-4.04,1.49-6.25.2-.9.2-1.26-.14-1.26-.39,0-1.07.59-1.57,1.12l-.25-.39c1.29-1.51,3.34-2.83,4.4-2.83m.48-6c-1.19,0-1.9,1.05-1.9,2.07s.6,1.68,1.54,1.68c1.14,0,1.82-1.07,1.82-2.1,0-.97-.6-1.65-1.46-1.65h0Zm-.48,5.75c-1.14,0-3.24,1.34-4.59,2.92l-.12.14.1.16.25.39.17.27.22-.23c.68-.72,1.19-1.04,1.39-1.04.03.03.06.22-.1.96-.34,1.5-.63,2.71-.97,4.11-.16.65-.33,1.35-.51,2.14-.36,1.44-.34,2.35.04,2.84.2.26.5.39.88.39,1.08,0,2.88-.93,4.49-3.01l.11-.14-.09-.15-.22-.36-.17-.28-.22.24c-.81.87-1.29,1.07-1.39,1.07,0,0,0,0,0,0-.01,0-.1-.13.05-.73.48-1.99.95-4.01,1.43-6.03.44-2.02.46-2.85.1-3.31-.18-.23-.45-.33-.82-.33h0Z"/></svg>