<?xml version="1.0" encoding="UTF-8"?><svg id="Layer_1" xmlns="http://www.w3.org/2000/svg" xmlns:xlink="http://www.w3.org/1999/xlink" viewBox="0 0 72 30"><defs><style>.cls-1{fill:#232323;}.cls-2{filter:url(#outer-glow-1);}.cls-3{fill:#e5e5e5;}</style><filter id="outer-glow-1" filterUnits="userSpaceOnUse"><feOffset dx="0" dy="0"/><feGaussianBlur result="blur" stdDeviation="1"/><feFlood flood-color="#e5e5e5" flood-opacity="1"/><feComposite in2="blur" operator="in"/><feComposite in="SourceGraphic"/></filter></defs><g class="cls-2"><g><g><path class="cls-3" d="m37.62,9.28c-1.35,0-2.25-.97-2.25-2.41s1-2.84,2.66-2.84c1.25,0,2.16,1,2.16,2.38s-.96,2.88-2.56,2.88Zm.41-3.94c-.92,0-1.34.89-1.34,1.52,0,.41.12,1.09.93,1.09s1.24-.79,1.24-1.56c0-.18-.04-1.06-.84-1.06Z"/><path class="cls-3" d="m38.03,4.52c.98,0,1.66.78,1.66,1.88,0,1.17-.77,2.38-2.06,2.38-1.06,0-1.75-.75-1.75-1.91s.81-2.34,2.16-2.34m-.41,3.94c1.06,0,1.74-1,1.74-2.06,0-.81-.43-1.56-1.34-1.56-1.22,0-1.84,1.12-1.84,2.02,0,1,.56,1.59,1.43,1.59m.41-4.94c-1.98,0-3.16,1.7-3.16,3.34s1.13,2.91,2.75,2.91c1.92,0,3.06-1.72,3.06-3.38s-1.12-2.88-2.66-2.88h0Zm-.41,3.94c-.17,0-.43,0-.43-.59,0-.33.21-1.02.84-1.02.28,0,.34.3.34.56,0,.44-.23,1.06-.74,1.06h0Z"/></g><g><path class="cls-3" d="m33.89,25.97c-.59,0-1.07-.22-1.4-.64-.54-.69-.59-1.81-.14-3.61l.57-2.37c.37-1.51.68-2.83,1.05-4.44-.14.13-.3.28-.48.47l-.72.76-.56-.89-.6-.93.38-.47c1.62-1.9,4.09-3.44,5.52-3.44.71,0,1.11.31,1.32.57.54.67.55,1.67,0,4.13-.43,1.82-.86,3.62-1.28,5.41l-.21.89c.14-.13.3-.28.48-.47l.72-.78.82,1.32.28.49-.32.44c-2.03,2.63-4.19,3.57-5.43,3.57Z"/><path class="cls-3" d="m37.5,10.91c.42,0,.73.13.94.38.42.52.4,1.46-.1,3.71-.53,2.25-1.06,4.49-1.59,6.7-.14.55-.09.74-.09.75.12,0,.64-.25,1.51-1.18l.28-.3.22.36.25.4.11.19-.13.18c-1.79,2.32-3.82,3.36-5.02,3.36-.43,0-.78-.15-1.01-.45-.43-.55-.45-1.57-.05-3.18.21-.87.39-1.65.57-2.38.38-1.55.7-2.9,1.08-4.57.14-.66.15-.91.14-1.01-.22.02-.77.38-1.5,1.14l-.28.3-.22-.34-.28-.43-.13-.2.15-.18c1.5-1.77,3.86-3.26,5.14-3.26m0-1c-1.77,0-4.39,1.83-5.9,3.61l-.16.2-.46.56.39.61.13.2.28.44.21.33.69,1.09.39-.41c-.21.9-.42,1.76-.64,2.69-.13.55-.27,1.12-.42,1.74l-.15.63c-.49,1.96-.41,3.21.23,4.03.42.54,1.06.83,1.8.83,1.77,0,4.06-1.47,5.82-3.75l.15-.2.38-.53-.33-.56-.11-.19-.26-.42-.22-.36-.69-1.12-.36.39c.36-1.49.71-2.99,1.06-4.49.52-2.38.64-3.66-.1-4.57-.28-.34-.8-.75-1.71-.75h0Z"/></g></g></g><g><path class="cls-3" d="m33.89,25.66c-.61,0-.96-.28-1.15-.52-.47-.6-.5-1.67-.09-3.34l.56-2.35c.38-1.56.7-2.91,1.09-4.59.07-.34.11-.56.13-.71-.24.14-.65.45-1.18,1.01l-.44.46-.83-1.29.24-.28c1.36-1.6,3.76-3.32,5.27-3.32.47,0,.84.15,1.08.46.52.64.38,1.85-.06,3.86-.53,2.25-1.06,4.5-1.59,6.71-.05.2-.07.34-.08.45.21-.12.61-.4,1.19-1.03l.45-.48.77,1.25-.21.27c-1.83,2.37-3.91,3.44-5.16,3.44Zm3.74-16.7c-1.16,0-1.93-.84-1.93-2.09s.87-2.52,2.34-2.52c1.08,0,1.84.85,1.84,2.06s-.84,2.56-2.24,2.56Z"/><path class="cls-1" d="m38.03,4.84c.9,0,1.34.75,1.34,1.56,0,1.06-.69,2.06-1.74,2.06-.87,0-1.43-.59-1.43-1.59,0-.9.62-2.02,1.84-2.02m-.53,6.39c1.09,0,1.12,1,.53,3.71-.53,2.24-1.06,4.49-1.59,6.7-.22.87-.06,1.15.22,1.15.22,0,.81-.28,1.74-1.28l.25.4c-1.78,2.31-3.71,3.24-4.77,3.24-1,0-1.31-.97-.75-3.24.65-2.74,1.09-4.49,1.65-6.95.22-1,.22-1.4-.16-1.4-.44,0-1.18.65-1.74,1.25l-.28-.44c1.43-1.68,3.71-3.15,4.89-3.15m.53-7.39c-1.78,0-2.84,1.54-2.84,3.02s1,2.59,2.43,2.59c1.54,0,2.74-1.34,2.74-3.06,0-1.48-.98-2.56-2.34-2.56h0Zm-.53,6.39c-1.67,0-4.19,1.78-5.65,3.5l-.48.56.4.62.28.44.69,1.07.88-.93s.02-.02.03-.04c-.31,1.35-.59,2.52-.91,3.84-.18.73-.36,1.5-.57,2.38-.46,1.86-.4,3.02.18,3.76.25.32.73.71,1.54.71,1.27,0,3.5-.95,5.56-3.63l.42-.55-.36-.59-.25-.4-.69-1.11-.89.95s-.01.01-.02.02c.45-1.88.9-3.78,1.34-5.68.49-2.23.61-3.49-.03-4.3-.24-.29-.68-.64-1.47-.64h0Z"/></g></svg>