<?xml version="1.0" encoding="UTF-8"?><svg id="Layer_1" xmlns="http://www.w3.org/2000/svg" viewBox="0 0 72 30"><defs><style>.cls-1{fill:#7c7c7c;}.cls-2{fill:#232323;}</style></defs><path class="cls-1" d="m33.9,25.28c-.37,0-.66-.13-.85-.37-.39-.5-.4-1.49-.02-3.02l.56-2.34c.38-1.56.7-2.91,1.09-4.6.11-.48.21-1.06.09-1.21-.02-.02-.04-.04-.12-.04-.31,0-.95.46-1.65,1.21l-.11.12-.42-.65.06-.07c1.47-1.73,3.76-3.19,4.99-3.19.36,0,.62.1.79.32.37.46.33,1.39-.14,3.54l-.18.76c-.47,1.99-.94,3.98-1.41,5.94-.16.65-.09.87-.03.94.02.03.05.05.13.05.17,0,.74-.26,1.65-1.24l.11-.12.38.62-.05.07c-1.75,2.27-3.7,3.29-4.87,3.29Zm3.74-16.7c-.96,0-1.56-.66-1.56-1.71,0-.89.61-2.15,1.96-2.15,1.01,0,1.46.84,1.46,1.68,0,1.07-.7,2.18-1.87,2.18Z"/><path class="cls-2" d="m38.04,4.84c.9,0,1.34.75,1.34,1.56,0,1.06-.69,2.06-1.74,2.06-.87,0-1.43-.59-1.43-1.59,0-.9.62-2.02,1.84-2.02m-.53,6.39c1.09,0,1.12,1,.53,3.71-.53,2.24-1.06,4.49-1.59,6.7-.22.87-.06,1.15.22,1.15.22,0,.81-.28,1.74-1.28l.25.4c-1.78,2.31-3.71,3.24-4.77,3.24-1,0-1.31-.97-.75-3.24.65-2.74,1.09-4.49,1.65-6.95.22-1,.22-1.4-.16-1.4-.44,0-1.18.65-1.74,1.25l-.28-.44c1.43-1.68,3.71-3.15,4.89-3.15m.53-6.64c-1.31,0-2.09,1.16-2.09,2.27s.66,1.84,1.68,1.84c1.25,0,1.99-1.17,1.99-2.31,0-.9-.49-1.81-1.59-1.81h0Zm-.53,6.39c-1.26,0-3.59,1.48-5.08,3.23l-.12.14.1.16.28.44.17.27.22-.23c.76-.81,1.34-1.17,1.56-1.17.06.05.1.25-.09,1.1-.38,1.67-.7,3.02-1.08,4.57-.18.73-.36,1.5-.57,2.38-.39,1.6-.38,2.59.04,3.13.22.28.54.42.95.42,1.19,0,3.19-1.03,4.96-3.34l.11-.14-.09-.15-.25-.4-.17-.28-.22.24c-.92.98-1.45,1.2-1.56,1.2-.03,0-.15-.13.02-.84.53-2.21,1.06-4.46,1.59-6.7.49-2.23.52-3.15.11-3.65-.2-.24-.49-.36-.89-.36h0Z"/></svg>