<?xml version="1.0" encoding="UTF-8"?><svg id="Layer_1" xmlns="http://www.w3.org/2000/svg" viewBox="0 0 72 30"><defs><style>.cls-1{fill:#4c4c4c;}.cls-2{fill:none;}</style></defs><path class="cls-1" d="m45.71,12.27c0-.14-.08-.26-.2-.33-.3-.19-.93-.71-1.48-1.99-.75-1.77-.31-3.54-.31-3.54,0,0-1.65-2.63-7.72-2.63s-7.72,2.63-7.72,2.63c0,0,.44,1.77-.31,3.54-.54,1.28-1.17,1.8-1.48,1.99-.12.07-.19.19-.2.33-.07,2.15.33,4.26.53,5.16.07.29.23.55.47.74l2.59,2.11s.33-1.18,1.47-1.11,1,1.06,1,1.06l-1.4,2.05,4.04,3.57c.58.51,1.45.51,2.02,0l4.05-3.57-1.41-2.05s-.14-.99,1-1.06,1.48,1.11,1.48,1.11l2.59-2.11c.23-.19.39-.45.46-.74.2-.9.6-3.01.53-5.16Zm-16.1,4.68c-2.2-1.42-1.67-3.86-1.67-3.86l2.61,1.26,2.9,1.39.88.43c-.64,1.31-2.53,2.2-4.72.78Zm6.01,3.21l-1.03-1.16c-.16-.19-.16-.47,0-.66l1.03-1.16v2.98Zm1.79-1.16l-1.03,1.16v-2.98l1.03,1.16c.16.19.16.47,0,.66Zm4.98-2.05c-2.19,1.42-4.08.53-4.72-.78l.88-.43,2.9-1.39,2.61-1.26s.53,2.44-1.67,3.86Z"/><line class="cls-2" x1="33.45" y1="15.74" x2="30.55" y2="14.35"/><line class="cls-2" x1="41.45" y1="14.35" x2="38.55" y2="15.74"/></svg>