<?xml version="1.0" encoding="UTF-8"?><svg id="Layer_1" xmlns="http://www.w3.org/2000/svg" viewBox="0 0 72 30"><defs><style>.cls-1{fill:#fff;}.cls-2{fill:#d8d8d8;}.cls-3{stroke:#fff;stroke-miterlimit:10;stroke-width:.5px;}.cls-3,.cls-4{fill:none;}.cls-5{fill:#e5e5e5;}</style></defs><path class="cls-5" d="m28.28,6.41s.44,1.77-.31,3.54c-.54,1.28-1.17,1.8-1.48,1.99-.12.07-.19.19-.2.33-.07,2.15.33,4.26.53,5.16.07.29.23.55.47.74l2.59,2.11s.33-1.18,1.47-1.11,1,1.06,1,1.06l-1.4,2.05,4.04,3.57c.29.26.65.38,1.01.38V3.78c-6.07,0-7.72,2.63-7.72,2.63Zm1.33,10.54c-2.2-1.42-1.67-3.86-1.67-3.86l2.61,1.26,2.9,1.39.88.43c-.64,1.31-2.53,2.2-4.72.78Zm6.01,3.21l-1.03-1.16c-.16-.19-.16-.47,0-.66l1.03-1.16v2.98Z"/><path class="cls-2" d="m45.71,12.27c0-.14-.08-.26-.2-.33-.3-.19-.93-.71-1.48-1.99-.75-1.77-.31-3.54-.31-3.54,0,0-1.65-2.63-7.72-2.63v22.45c.36,0,.72-.12,1.01-.38l4.05-3.57-1.41-2.05s-.14-.99,1-1.06c1.14-.07,1.48,1.11,1.48,1.11l2.59-2.11c.23-.19.39-.45.46-.74.2-.9.6-3.01.53-5.16Zm-8.3,6.73l-1.03,1.16v-2.98l1.03,1.16c.16.19.16.47,0,.66Zm4.98-2.05c-2.19,1.42-4.08.53-4.72-.78l.88-.43,2.9-1.39,2.61-1.26s.53,2.44-1.67,3.86Z"/><path class="cls-1" d="m33.06,16.17c-.45.11-.88.2-1.23.28-.46.1-.91-.19-1.02-.65l-.19-.8,2.44,1.17Z"/><line class="cls-4" x1="33.45" y1="15.74" x2="30.55" y2="14.35"/><path class="cls-1" d="m41.38,15l-.2.8c-.11.46-.56.75-1.02.65-.35-.08-.77-.17-1.22-.28l2.44-1.17Z"/><line class="cls-4" x1="41.45" y1="14.35" x2="38.55" y2="15.74"/><path class="cls-3" d="m45.71,12.27c0-.14-.08-.26-.2-.33-.3-.19-.93-.71-1.48-1.99-.75-1.77-.31-3.54-.31-3.54,0,0-1.65-2.63-7.72-2.63s-7.72,2.63-7.72,2.63c0,0,.44,1.77-.31,3.54-.54,1.28-1.17,1.8-1.48,1.99-.12.07-.19.19-.2.33-.07,2.15.33,4.26.53,5.16.07.29.23.55.47.74l2.59,2.11s.33-1.18,1.47-1.11,1,1.06,1,1.06l-1.4,2.05,4.04,3.57c.58.51,1.45.51,2.02,0l4.05-3.57-1.41-2.05s-.14-.99,1-1.06,1.48,1.11,1.48,1.11l2.59-2.11c.23-.19.39-.45.46-.74.2-.9.6-3.01.53-5.16Z"/><path class="cls-1" d="m35.52,17.44v2.45l-.85-.96c-.13-.15-.13-.38,0-.53l.86-.96m.1-.26l-1.03,1.16c-.16.19-.16.47,0,.66l1.03,1.16v-2.98h0Z"/><path class="cls-1" d="m36.48,17.44l.85.96c.13.15.13.38,0,.53l-.86.96v-2.45m-.1-.26v2.98l1.03-1.16c.16-.19.16-.47,0-.66l-1.03-1.16h0Z"/><path class="cls-1" d="m27.94,13.09l2.61,1.26,2.9,1.39.88.43c-.41.84-1.33,1.5-2.51,1.5-.67,0-1.42-.21-2.21-.72-2.2-1.42-1.67-3.86-1.67-3.86m-.21-.44l-.08.37s-.55,2.66,1.8,4.18c.79.51,1.59.77,2.37.77,1.21,0,2.28-.64,2.78-1.67l.13-.27-.27-.13-.88-.43-2.9-1.39-2.61-1.26-.34-.17h0Z"/><path class="cls-1" d="m44.06,13.09s.53,2.44-1.67,3.86c-.79.51-1.54.72-2.21.72-1.18,0-2.1-.67-2.51-1.5l.88-.43,2.9-1.39,2.61-1.26m.21-.44l-.34.17-2.61,1.26-2.9,1.39-.88.43-.27.13.13.27c.5,1.03,1.57,1.67,2.78,1.67.78,0,1.58-.26,2.37-.77,2.35-1.51,1.81-4.15,1.8-4.18l-.08-.37h0Z"/></svg>