<?xml version="1.0" encoding="UTF-8"?><svg id="Layer_1" xmlns="http://www.w3.org/2000/svg" viewBox="0 0 12 12"><defs><style>.cls-1{fill:#141414;}</style></defs><path class="cls-1" d="m.82,4.66h.92v2.68h-.92C.37,7.34,0,6.97,0,6.52v-1.04c0-.45.37-.82.82-.82Z"/><polygon class="cls-1" points="2.54 4.2 6.38 .93 6.38 11.07 2.54 7.8 2.54 4.2"/><path class="cls-1" d="m7.88,7.89v-3.78c1.05,0,1.9.84,1.9,1.89s-.85,1.89-1.9,1.89Z"/><path class="cls-1" d="m12,6c0,2.27-1.84,4.12-4.12,4.12v-.78c1.85,0,3.34-1.5,3.34-3.34s-1.49-3.34-3.34-3.34v-.78c2.28,0,4.12,1.84,4.12,4.12Z"/></svg>