<?xml version="1.0" encoding="UTF-8"?><svg id="Layer_1" xmlns="http://www.w3.org/2000/svg" viewBox="0 0 72 30"><defs><style>.cls-1{fill:#7f7f7f;}</style></defs><path class="cls-1" d="m43.98,16.02c-.45-.61-.45-1.43,0-2.04l2.23-3.06c.88-1.2-.09-2.89-1.57-2.72l-3.77.4c-.75.09-1.46-.32-1.77-1.02l-1.52-3.46c-.61-1.37-2.54-1.37-3.15,0l-1.54,3.46c-.3.7-1.01,1.11-1.76,1.02l-3.77-.4c-1.48-.17-2.47,1.52-1.57,2.72l2.23,3.06c.45.61.45,1.43,0,2.04l-2.23,3.05c-.89,1.21.09,2.9,1.57,2.74l3.77-.41c.75-.08,1.46.34,1.76,1.02l1.54,3.47c.61,1.37,2.54,1.37,3.15,0l1.52-3.47c.31-.68,1.02-1.1,1.77-1.02l3.77.41c1.48.17,2.45-1.52,1.57-2.74l-2.23-3.05Zm-7.98,3.54c-2.52,0-4.56-2.04-4.56-4.56s2.04-4.56,4.56-4.56,4.56,2.04,4.56,4.56-2.04,4.56-4.56,4.56Z"/></svg>