<?xml version="1.0" encoding="UTF-8"?><svg id="Layer_1" xmlns="http://www.w3.org/2000/svg" viewBox="0 0 72 30"><defs><style>.cls-1{fill:#fff;}.cls-2{fill:#e5e5e5;}</style></defs><path class="cls-2" d="m36,27.08c-.76,0-1.43-.43-1.73-1.13l-1.54-3.47c-.24-.56-.8-.92-1.42-.92-.05,0-.11,0-.16,0l-3.77.41c-.08,0-.15.01-.22.01-.71,0-1.35-.4-1.68-1.04-.33-.65-.27-1.39.16-1.98l2.23-3.05c.41-.55.41-1.29,0-1.83l-2.23-3.06c-.43-.58-.49-1.32-.17-1.97.33-.65.97-1.05,1.68-1.05.07,0,.15,0,.22.01l3.77.4c.06,0,.13.01.19.01.6,0,1.15-.36,1.39-.93l1.54-3.46c.31-.7.97-1.13,1.73-1.13s1.43.43,1.73,1.13l1.52,3.46c.25.56.8.93,1.4.93.06,0,.12,0,.18-.01l3.77-.4c.07,0,.15-.01.22-.01.71,0,1.35.4,1.67,1.04.33.65.27,1.39-.16,1.98l-2.23,3.06c-.41.55-.41,1.28,0,1.83l2.23,3.05c.43.59.49,1.34.16,1.99-.33.64-.96,1.03-1.67,1.03h0c-.07,0-.15,0-.22-.01l-3.77-.41c-.05,0-.11,0-.16,0-.61,0-1.17.36-1.43.93l-1.52,3.47c-.31.7-.97,1.13-1.73,1.13Zm0-16.46c-2.42,0-4.38,1.97-4.38,4.38s1.97,4.38,4.38,4.38,4.38-1.97,4.38-4.38-1.97-4.38-4.38-4.38Z"/><path class="cls-1" d="m36,3.09c.64,0,1.27.34,1.57,1.03l1.52,3.46c.28.63.89,1.03,1.56,1.03.07,0,.14,0,.2-.01l3.77-.4c.07,0,.14-.01.2-.01,1.37,0,2.21,1.59,1.37,2.74l-2.23,3.06c-.45.61-.45,1.43,0,2.04l2.23,3.05c.84,1.16,0,2.75-1.37,2.75-.07,0-.13,0-.2-.01l-3.77-.41c-.06,0-.12,0-.18,0-.68,0-1.3.4-1.59,1.03l-1.52,3.47c-.3.68-.94,1.03-1.57,1.03s-1.27-.34-1.57-1.03l-1.54-3.47c-.27-.63-.9-1.03-1.58-1.03-.06,0-.12,0-.18,0l-3.77.41c-.07,0-.14.01-.2.01-1.37,0-2.22-1.59-1.37-2.75l2.23-3.05c.45-.61.45-1.43,0-2.04l-2.23-3.06c-.85-1.14,0-2.74,1.37-2.74.07,0,.13,0,.2.01l3.77.4c.07,0,.14.01.2.01.67,0,1.28-.4,1.55-1.03l1.54-3.46c.3-.68.94-1.03,1.57-1.03m0,16.46c2.52,0,4.56-2.04,4.56-4.56s-2.04-4.56-4.56-4.56-4.56,2.04-4.56,4.56,2.04,4.56,4.56,4.56m0-16.81c-.83,0-1.56.47-1.89,1.23l-1.54,3.46c-.21.5-.7.82-1.23.82-.05,0-.11,0-.16,0l-3.77-.4c-.08,0-.16-.01-.24-.01-.78,0-1.48.44-1.84,1.14-.36.71-.29,1.51.18,2.15l2.23,3.06c.36.49.36,1.14,0,1.62l-2.23,3.05c-.47.64-.54,1.45-.18,2.17.36.7,1.06,1.14,1.83,1.14.08,0,.16,0,.24-.01l3.77-.41s.09,0,.14,0c.55,0,1.04.32,1.25.82l1.54,3.47c.34.76,1.06,1.23,1.89,1.23s1.56-.47,1.89-1.23l1.52-3.47c.22-.5.72-.82,1.27-.82.05,0,.1,0,.14,0l3.77.41c.08,0,.16.01.24.01.77,0,1.47-.43,1.82-1.13.36-.71.3-1.52-.17-2.17l-2.23-3.05c-.36-.49-.36-1.14,0-1.62l2.24-3.06c.47-.64.53-1.45.17-2.16-.36-.7-1.06-1.13-1.83-1.13-.08,0-.16,0-.24.01l-3.77.4c-.06,0-.11.01-.17.01-.53,0-1.02-.32-1.24-.82l-1.52-3.46c-.34-.76-1.06-1.24-1.9-1.24h0Zm0,16.46c-2.32,0-4.21-1.89-4.21-4.21s1.89-4.21,4.21-4.21,4.21,1.89,4.21,4.21-1.89,4.21-4.21,4.21h0Z"/></svg>