<?xml version="1.0" encoding="UTF-8"?><svg id="Layer_1" xmlns="http://www.w3.org/2000/svg" viewBox="0 0 72 30"><defs><style>.cls-1{fill:#7f7f7f;}</style></defs><path class="cls-1" d="m51.15,18.22l-3.99.58c-.34.05-.64.28-.86.64l-1.65,2.78c-.63,1.07-1.86.77-2.2-.53l-.43-1.63c-.44-1.68-2.19-1.52-2.47.23s-.58,3.63-.87,5.4c-.31,1.9-2.26,1.86-2.52-.06-.17-1.21-.34-2.49-.52-3.79-.27-1.95-2.27-1.95-2.53,0-.16,1.17-.32,2.32-.47,3.42-.27,1.93-2.24,1.94-2.53.02l-1.19-8.06c-.24-1.66-1.85-1.97-2.41-.47l-.42,1.13c-.25.66-.76,1.04-1.29.95l-3.94-.62,3.52-.54c.43-.07.8-.42,1-.95.41-1.1,1.02-2.74,1.6-4.28.55-1.46,2.1-1.21,2.39.38.07.37.14.75.21,1.15.35,1.9,2.32,1.77,2.53-.17.33-3.11.68-6.34,1-9.37.22-2.05,2.34-2.04,2.55,0,.35,3.36.72,6.96,1.07,10.4.2,1.93,2.16,2.1,2.52.21h0c.33-1.69,2.02-1.8,2.46-.15l1.07,4.06c.34,1.3,1.57,1.59,2.2.53l.75-1.25c.28-.46.7-.7,1.13-.64l4.29.62Z"/></svg>