<?xml version="1.0" encoding="UTF-8"?><svg id="Layer_1" xmlns="http://www.w3.org/2000/svg" viewBox="0 0 72 30"><defs><style>.cls-1{fill:#fff;}.cls-2{fill:#e5e5e5;}</style></defs><path class="cls-2" d="m37.42,27.27c-.61,0-1.29-.5-1.44-1.61l-.52-3.79c-.12-.9-.64-1.31-1.09-1.31s-.97.4-1.09,1.31l-.47,3.42c-.15,1.11-.83,1.61-1.44,1.61s-1.28-.49-1.44-1.59l-1.19-8.06c-.13-.88-.66-1.29-1.1-1.29-.41,0-.77.32-.97.85l-.42,1.13c-.25.67-.75,1.08-1.31,1.08-.06,0-.11,0-.17-.01l-5.06-.79,4.65-.71c.37-.06.69-.37.87-.84.41-1.1,1.02-2.74,1.6-4.28.25-.68.74-1.08,1.3-1.08s1.23.46,1.42,1.49l.21,1.15c.14.74.56,1.21,1.08,1.21.48,0,1-.42,1.1-1.37l1-9.37c.12-1.17.82-1.69,1.45-1.69s1.33.53,1.45,1.7l1.07,10.4c.1.95.64,1.38,1.11,1.38.51,0,.93-.47,1.07-1.19.17-.89.73-1.47,1.42-1.47.5,0,1.12.34,1.38,1.31l1.07,4.06c.17.64.58,1.05,1.05,1.05.32,0,.62-.2.84-.56l.75-1.25c.28-.47.69-.73,1.14-.73.05,0,.11,0,.16.01l5.49.8-5.18.75c-.29.04-.55.24-.73.56l-1.65,2.78c-.28.47-.69.74-1.14.74-.63,0-1.17-.51-1.38-1.31l-.43-1.63c-.17-.65-.57-1.05-1.04-1.05-.44,0-.95.39-1.09,1.26l-.87,5.4c-.18,1.15-.88,1.55-1.43,1.55Z"/><path class="cls-1" d="m34.39,2.9c.59,0,1.17.51,1.28,1.54.35,3.36.72,6.96,1.07,10.4.1,1.01.69,1.54,1.28,1.54.53,0,1.07-.43,1.24-1.33.17-.88.71-1.33,1.25-1.33.5,0,1,.39,1.21,1.18l1.07,4.06c.2.76.7,1.18,1.22,1.18.36,0,.72-.21.99-.65l.75-1.25c.25-.41.61-.65.99-.65.04,0,.09,0,.13,0l4.29.62-3.99.58c-.34.05-.64.28-.86.64l-1.65,2.78c-.26.44-.63.65-.99.65-.51,0-1.01-.42-1.21-1.18l-.43-1.63c-.21-.79-.71-1.18-1.21-1.18-.56,0-1.11.48-1.26,1.4-.28,1.77-.58,3.63-.87,5.4-.15.94-.7,1.4-1.26,1.4s-1.14-.49-1.27-1.46c-.17-1.21-.34-2.49-.52-3.79-.13-.97-.7-1.46-1.27-1.46-.57,0-1.13.49-1.27,1.46-.16,1.17-.32,2.32-.47,3.42-.13.97-.7,1.46-1.26,1.46s-1.12-.48-1.26-1.44l-1.19-8.06c-.14-.93-.7-1.44-1.27-1.44-.44,0-.89.31-1.14.97l-.42,1.13c-.22.6-.67.97-1.14.97-.05,0-.1,0-.14-.01l-3.94-.62,3.52-.54c.43-.07.8-.42,1-.95.41-1.1,1.02-2.74,1.6-4.28.25-.66.69-.97,1.14-.97.55,0,1.09.47,1.25,1.35.07.37.14.75.21,1.15.17.91.71,1.35,1.25,1.35.59,0,1.17-.52,1.28-1.53.33-3.11.68-6.34,1-9.37.11-1.02.69-1.53,1.28-1.53m0-.35c-.71,0-1.49.57-1.62,1.85l-1,9.37c-.09.84-.53,1.21-.93,1.21-.43,0-.79-.42-.91-1.07l-.21-1.15c-.21-1.13-.95-1.63-1.6-1.63s-1.19.45-1.47,1.19c-.58,1.55-1.19,3.18-1.6,4.28-.15.41-.43.68-.73.73l-3.52.54-2.25.34,2.24.35,3.94.62c.07.01.13.02.2.02.63,0,1.2-.46,1.47-1.19l.42-1.13c.17-.46.48-.74.81-.74.36,0,.81.36.92,1.14l1.19,8.06c.18,1.2.94,1.73,1.61,1.73s1.44-.54,1.61-1.76l.47-3.42c.11-.8.54-1.16.92-1.16.38,0,.81.36.92,1.16l.52,3.79c.17,1.22.93,1.76,1.61,1.76s1.41-.53,1.6-1.7l.87-5.4c.12-.77.55-1.11.92-1.11.39,0,.72.35.87.92l.43,1.63c.23.87.84,1.44,1.55,1.44.51,0,.98-.3,1.29-.82l1.65-2.78c.16-.27.38-.44.61-.47l3.99-.58,2.38-.35-2.38-.35-4.29-.62c-.06,0-.12-.01-.18-.01-.51,0-.98.3-1.29.82l-.75,1.25c-.18.31-.43.48-.69.48-.39,0-.73-.36-.88-.92l-1.07-4.06c-.28-1.06-.98-1.44-1.55-1.44-.64,0-1.38.5-1.59,1.61-.12.64-.48,1.05-.9,1.05-.39,0-.85-.38-.93-1.23l-1.07-10.4c-.13-1.28-.91-1.86-1.62-1.86h0Z"/></svg>