<?xml version="1.0" encoding="UTF-8"?><svg id="Layer_1" xmlns="http://www.w3.org/2000/svg" viewBox="0 0 72 30"><defs><style>.cls-1{fill:#7f7f7f;}</style></defs><path class="cls-1" d="m46.92,21.95c0,1.67-1.78,3.03-3.98,3.03s-3.97-1.36-3.97-3.03,1.78-3.03,3.97-3.03c1.09,0,2.06.33,2.78.87l-.91-11.45h-13.04s1.26,15.27,1.26,15.47c0,1.67-1.78,3.03-3.98,3.03s-3.97-1.36-3.97-3.03,1.78-3.03,3.97-3.03c1.08,0,2.06.33,2.78.86l-1.38-17.39c-.05-.58.41-1.08,1-1.08h13.04c.52,0,.95.39,1,.91.31,3.74,1.45,17.69,1.45,17.87Z"/></svg>