<?xml version="1.0" encoding="UTF-8"?><svg id="Layer_1" xmlns="http://www.w3.org/2000/svg" viewBox="0 0 72 30"><defs><style>.cls-1{fill:#fff;}.cls-2{fill:#e5e5e5;}</style></defs><path class="cls-2" d="m29.05,27.01c-2.29,0-4.15-1.44-4.15-3.21s1.86-3.2,4.15-3.2c.94,0,1.84.24,2.58.69l-1.35-17.03c-.03-.33.09-.65.31-.89.22-.24.54-.38.86-.38h13.04c.62,0,1.12.46,1.17,1.07.44,5.32,1.45,17.71,1.45,17.88,0,1.77-1.86,3.21-4.15,3.21s-4.15-1.44-4.15-3.21,1.86-3.21,4.15-3.21c.94,0,1.85.25,2.58.7l-.87-10.93h-12.69c.19,2.25,1.25,15.1,1.25,15.29,0,1.77-1.86,3.21-4.15,3.21Z"/><path class="cls-1" d="m44.48,3.16c.52,0,.95.39,1,.91.31,3.74,1.45,17.69,1.45,17.87,0,1.67-1.78,3.03-3.98,3.03s-3.97-1.36-3.97-3.03,1.78-3.03,3.97-3.03c1.09,0,2.06.33,2.78.87l-.91-11.45h-13.04s1.26,15.27,1.26,15.47c0,1.67-1.78,3.03-3.98,3.03s-3.97-1.36-3.97-3.03,1.78-3.03,3.97-3.03c1.08,0,2.06.33,2.78.86l-1.38-17.39c-.05-.58.41-1.08,1-1.08h13.04m0-.35h-13.04c-.38,0-.74.16-.99.43-.25.28-.38.65-.35,1.02l1.33,16.7c-.7-.36-1.52-.55-2.38-.55-2.38,0-4.32,1.52-4.32,3.38s1.94,3.38,4.32,3.38,4.33-1.52,4.33-3.38c0-.2-.96-11.89-1.23-15.12h12.34l.83,10.44c-.7-.36-1.52-.56-2.38-.56-2.38,0-4.32,1.52-4.32,3.38s1.94,3.38,4.32,3.38,4.33-1.52,4.33-3.38c0-.16-.79-9.82-1.45-17.9-.06-.7-.64-1.23-1.35-1.23h0Z"/></svg>