<?xml version="1.0" encoding="UTF-8"?><svg id="Layer_1" xmlns="http://www.w3.org/2000/svg" viewBox="0 0 12 12"><defs><style>.cls-1{fill:#e5e5e5;}</style></defs><path class="cls-1" d="m1.74,7.33h-.92C.37,7.33,0,6.97,0,6.52v-1.04c0-.45.37-.82.82-.82h.92s0,2.67,0,2.67Z"/><path class="cls-1" d="m5.43,10.23l-2.67-2.37c-.11-.09-.17-.22-.17-.36v-3c0-.14.06-.26.17-.36l2.67-2.37c.35-.31.95-.09.95.36v7.75c0,.45-.59.67-.95.36Z"/><path class="cls-1" d="m7.88,7.89v-3.79c1.05,0,1.9.85,1.9,1.89s-.85,1.9-1.9,1.9Z"/><path class="cls-1" d="m12,6c0,2.27-1.84,4.12-4.12,4.12v-.78c1.85,0,3.34-1.5,3.34-3.34s-1.49-3.34-3.34-3.34v-.78c2.27,0,4.12,1.84,4.12,4.12Z"/><polygon class="cls-1" points="6.37 .93 2.54 4.2 2.54 7.8 6.37 11.07 6.37 .93"/></svg>