<?xml version="1.0" encoding="UTF-8"?><svg id="Layer_1" xmlns="http://www.w3.org/2000/svg" viewBox="0 0 12 12"><defs><style>.cls-1{fill:#fff;}.cls-2{fill:#e5e5e5;}</style></defs><path class="cls-2" d="m4.8,11.39l.92-2.72h-1.23l-.91,2.72h-1.62l.91-2.72h-1.56l.46-1.43h1.6l.81-2.47h-1.59l.44-1.41h1.65l.91-2.75h1.62l-.91,2.75h1.21l.91-2.75h1.62l-.92,2.75h1.57l-.42,1.41h-1.63l-.82,2.47h1.64l-.44,1.43h-1.68l-.91,2.72h-1.62Zm1.39-4.15l.82-2.47h-1.21l-.81,2.47h1.2Z"/><path class="cls-1" d="m9.79.78l-.92,2.75h1.58l-.31,1.06h-1.63l-.94,2.82h1.64l-.33,1.08h-1.67l-.91,2.72h-1.25l.92-2.72h-1.6l-.91,2.72h-1.25l.91-2.72h-1.56l.34-1.08h1.6l.92-2.82h-1.6l.33-1.06h1.64l.91-2.75h1.25l-.91,2.75h1.58l.91-2.75h1.25m-2.54,3.82h-1.58l-.92,2.82h1.57l.94-2.82M10.27.43h-1.99l-.08.24-.83,2.51h-.84l.76-2.29.15-.46h-1.99l-.08.24-.83,2.51h-1.65l-.08.25-.33,1.06-.14.45h1.59l-.69,2.12h-1.6l-.08.24-.34,1.08-.15.46h1.56l-.75,2.26-.15.46h1.99l.08-.24.83-2.48h.86l-.77,2.26-.16.46h1.99l.08-.24.83-2.48h1.68l.08-.25.33-1.08.14-.45h-1.63l.71-2.12h1.64l.07-.25.31-1.06.13-.45h-1.56l.77-2.29.15-.46h0Zm-4.35,4.52h.84l-.71,2.12h-.83l.69-2.12h0Z"/></svg>