<?xml version="1.0" encoding="UTF-8"?><svg id="Layer_1" xmlns="http://www.w3.org/2000/svg" viewBox="0 0 72 30"><defs><style>.cls-1{fill:#7f7f7f;}</style></defs><path class="cls-1" d="M25.52,23.33c-.97,0-1.75-.78-1.75-1.75V13.2c0-.97,.78-1.75,1.75-1.75s1.75,.78,1.75,1.75v8.38c0,.97-.78,1.75-1.75,1.75Z"/><path class="cls-1" d="M20.27,23.33c-.97,0-1.75-.78-1.75-1.75v-2.04c0-.97,.78-1.75,1.75-1.75s1.75,.78,1.75,1.75v2.04c0,.97-.78,1.75-1.75,1.75Z"/><path class="cls-1" d="M30.76,23.33c-.97,0-1.75-.78-1.75-1.75V6.25c0-.97,.78-1.75,1.75-1.75s1.75,.78,1.75,1.75v15.33c0,.97-.78,1.75-1.75,1.75Z"/><path class="cls-1" d="M36,23.33c-.97,0-1.75-.78-1.75-1.75v-5.07c0-.97,.78-1.75,1.75-1.75s1.75,.78,1.75,1.75v5.07c0,.97-.78,1.75-1.75,1.75Z"/><path class="cls-1" d="M51.73,23.33c-.97,0-1.75-.78-1.75-1.75v-1.76c0-.97,.78-1.75,1.75-1.75s1.75,.78,1.75,1.75v1.76c0,.97-.78,1.75-1.75,1.75Z"/><path class="cls-1" d="M46.49,23.33c-.97,0-1.75-.78-1.75-1.75v-4.08c0-.97,.78-1.75,1.75-1.75s1.75,.78,1.75,1.75v4.08c0,.97-.78,1.75-1.75,1.75Z"/><path class="cls-1" d="M41.24,23.33c-.97,0-1.75-.78-1.75-1.75V10.56c0-.97,.78-1.75,1.75-1.75s1.75,.78,1.75,1.75v11.02c0,.97-.78,1.75-1.75,1.75Z"/></svg>