<?xml version="1.0" encoding="UTF-8"?><svg id="Layer_1" xmlns="http://www.w3.org/2000/svg" viewBox="0 0 72 30"><defs><style>.cls-1{fill:#fff;}.cls-2{fill:#4c4c4c;}.cls-3{fill:#e5e5e5;}</style></defs><g><g><path class="cls-2" d="m25.51,23.58c-1.1,0-2-.9-2-2v-8.38c0-1.1.9-2,2-2s2,.9,2,2v8.38c0,1.1-.9,2-2,2Z"/><path class="cls-1" d="m25.51,11.45c.97,0,1.75.78,1.75,1.75v8.38c0,.97-.78,1.75-1.75,1.75s-1.75-.78-1.75-1.75v-8.38c0-.97.78-1.75,1.75-1.75m0-.5c-1.24,0-2.25,1.01-2.25,2.25v8.38c0,1.24,1.01,2.25,2.25,2.25s2.25-1.01,2.25-2.25v-8.38c0-1.24-1.01-2.25-2.25-2.25h0Z"/></g><g><path class="cls-2" d="m20.27,23.58c-1.1,0-2-.9-2-2v-2.04c0-1.1.9-2,2-2s2,.9,2,2v2.04c0,1.1-.9,2-2,2Z"/><path class="cls-1" d="m20.27,17.79c.97,0,1.75.78,1.75,1.75v2.04c0,.97-.78,1.75-1.75,1.75s-1.75-.78-1.75-1.75v-2.04c0-.97.78-1.75,1.75-1.75m0-.5c-1.24,0-2.25,1.01-2.25,2.25v2.04c0,1.24,1.01,2.25,2.25,2.25s2.25-1.01,2.25-2.25v-2.04c0-1.24-1.01-2.25-2.25-2.25h0Z"/></g><g><path class="cls-2" d="m30.76,23.58c-1.1,0-2-.9-2-2V6.25c0-1.1.9-2,2-2s2,.9,2,2v15.33c0,1.1-.9,2-2,2Z"/><path class="cls-1" d="m30.76,4.5c.97,0,1.75.78,1.75,1.75v15.33c0,.97-.78,1.75-1.75,1.75s-1.75-.78-1.75-1.75V6.25c0-.97.78-1.75,1.75-1.75m0-.5c-1.24,0-2.25,1.01-2.25,2.25v15.33c0,1.24,1.01,2.25,2.25,2.25s2.25-1.01,2.25-2.25V6.25c0-1.24-1.01-2.25-2.25-2.25h0Z"/></g><g><path class="cls-2" d="m36,23.58c-1.1,0-2-.9-2-2v-5.07c0-1.1.9-2,2-2s2,.9,2,2v5.07c0,1.1-.9,2-2,2Z"/><path class="cls-1" d="m36,14.76c.97,0,1.75.78,1.75,1.75v5.07c0,.97-.78,1.75-1.75,1.75s-1.75-.78-1.75-1.75v-5.07c0-.97.78-1.75,1.75-1.75m0-.5c-1.24,0-2.25,1.01-2.25,2.25v5.07c0,1.24,1.01,2.25,2.25,2.25s2.25-1.01,2.25-2.25v-5.07c0-1.24-1.01-2.25-2.25-2.25h0Z"/></g><g><path class="cls-2" d="m51.73,23.58c-1.1,0-2-.9-2-2v-1.76c0-1.1.9-2,2-2s2,.9,2,2v1.76c0,1.1-.9,2-2,2Z"/><path class="cls-1" d="m51.73,18.07c.97,0,1.75.78,1.75,1.75v1.76c0,.97-.78,1.75-1.75,1.75s-1.75-.78-1.75-1.75v-1.76c0-.97.78-1.75,1.75-1.75m0-.5c-1.24,0-2.25,1.01-2.25,2.25v1.76c0,1.24,1.01,2.25,2.25,2.25s2.25-1.01,2.25-2.25v-1.76c0-1.24-1.01-2.25-2.25-2.25h0Z"/></g><g><path class="cls-2" d="m46.49,23.58c-1.1,0-2-.9-2-2v-4.08c0-1.1.9-2,2-2s2,.9,2,2v4.08c0,1.1-.9,2-2,2Z"/><path class="cls-1" d="m46.49,15.75c.97,0,1.75.78,1.75,1.75v4.08c0,.97-.78,1.75-1.75,1.75s-1.75-.78-1.75-1.75v-4.08c0-.97.78-1.75,1.75-1.75m0-.5c-1.24,0-2.25,1.01-2.25,2.25v4.08c0,1.24,1.01,2.25,2.25,2.25s2.25-1.01,2.25-2.25v-4.08c0-1.24-1.01-2.25-2.25-2.25h0Z"/></g><g><path class="cls-2" d="m41.24,23.58c-1.1,0-2-.9-2-2v-11.02c0-1.1.9-2,2-2s2,.9,2,2v11.02c0,1.1-.9,2-2,2Z"/><path class="cls-1" d="m41.24,8.81c.97,0,1.75.78,1.75,1.75v11.02c0,.97-.78,1.75-1.75,1.75s-1.75-.78-1.75-1.75v-11.02c0-.97.78-1.75,1.75-1.75m0-.5c-1.24,0-2.25,1.01-2.25,2.25v11.02c0,1.24,1.01,2.25,2.25,2.25s2.25-1.01,2.25-2.25v-11.02c0-1.24-1.01-2.25-2.25-2.25h0Z"/></g></g><g><path class="cls-3" d="m25.51,23.33c-.97,0-1.75-.78-1.75-1.75v-8.38c0-.97.78-1.75,1.75-1.75s1.75.78,1.75,1.75v8.38c0,.97-.78,1.75-1.75,1.75Z"/><path class="cls-3" d="m20.27,23.33c-.97,0-1.75-.78-1.75-1.75v-2.04c0-.97.78-1.75,1.75-1.75s1.75.78,1.75,1.75v2.04c0,.97-.78,1.75-1.75,1.75Z"/><path class="cls-3" d="m30.76,23.33c-.97,0-1.75-.78-1.75-1.75V6.25c0-.97.78-1.75,1.75-1.75s1.75.78,1.75,1.75v15.33c0,.97-.78,1.75-1.75,1.75Z"/><path class="cls-3" d="m36,23.33c-.97,0-1.75-.78-1.75-1.75v-5.07c0-.97.78-1.75,1.75-1.75s1.75.78,1.75,1.75v5.07c0,.97-.78,1.75-1.75,1.75Z"/><path class="cls-3" d="m51.73,23.33c-.97,0-1.75-.78-1.75-1.75v-1.76c0-.97.78-1.75,1.75-1.75s1.75.78,1.75,1.75v1.76c0,.97-.78,1.75-1.75,1.75Z"/><path class="cls-3" d="m46.49,23.33c-.97,0-1.75-.78-1.75-1.75v-4.08c0-.97.78-1.75,1.75-1.75s1.75.78,1.75,1.75v4.08c0,.97-.78,1.75-1.75,1.75Z"/><path class="cls-3" d="m41.24,23.33c-.97,0-1.75-.78-1.75-1.75v-11.02c0-.97.78-1.75,1.75-1.75s1.75.78,1.75,1.75v11.02c0,.97-.78,1.75-1.75,1.75Z"/></g></svg>