<?xml version="1.0" encoding="UTF-8"?><svg id="Layer_1" xmlns="http://www.w3.org/2000/svg" viewBox="0 0 72 30"><defs><style>.cls-1{fill:#212121;}.cls-2{fill:#7f7f7f;}</style></defs><g><rect class="cls-2" x="40.32" y="12.17" width="14.98" height="5.67"/><path class="cls-1" d="M54.8,12.67v4.67h-13.98v-4.67h13.98m1-1h-15.98v6.67h15.98v-6.67h0Z"/></g><g><rect class="cls-2" x="40.32" y="5.17" width="4.22" height="5.67"/><path class="cls-1" d="M44.04,5.67v4.67h-3.22V5.67h3.22m1-1h-5.22v6.67h5.22V4.67h0Z"/></g><g><rect class="cls-2" x="35.12" y="2.92" width="4.19" height="24.17"/><path class="cls-1" d="M38.82,3.42V26.58h-3.19V3.42h3.19m1-1h-5.19V27.58h5.19V2.42h0Z"/></g><g><rect class="cls-2" x="40.32" y="19.17" width="7.5" height="5.67"/><path class="cls-1" d="M47.32,19.67v4.67h-6.5v-4.67h6.5m1-1h-8.5v6.67h8.5v-6.67h0Z"/></g><g><rect class="cls-2" x="23.9" y="12.17" width="10.22" height="5.67"/><path class="cls-1" d="M33.62,12.67v4.67h-9.22v-4.67h9.22m1-1h-11.22v6.67h11.22v-6.67h0Z"/></g><g><rect class="cls-2" x="16.7" y="5.17" width="17.42" height="5.67"/><path class="cls-1" d="M33.62,5.67v4.67H17.2V5.67h16.42m1-1H16.2v6.67h18.42V4.67h0Z"/></g></svg>