<?xml version="1.0" encoding="UTF-8"?><svg xmlns="http://www.w3.org/2000/svg" xmlns:xlink="http://www.w3.org/1999/xlink" viewBox="0 0 72 30"><defs><style>.cls-1{isolation:isolate;}.cls-2{stroke:#e5e5e5;stroke-miterlimit:10;}.cls-2,.cls-3{fill:#e5e5e5;}.cls-4{filter:url(#outer-glow-3);mix-blend-mode:lighten;}.cls-5{fill:#212121;}</style><filter id="outer-glow-3" filterUnits="userSpaceOnUse"><feOffset dx="0" dy="0"/><feGaussianBlur result="blur" stdDeviation=".85"/><feFlood flood-color="#e5e5e5" flood-opacity="1"/><feComposite in2="blur" operator="in"/><feComposite in="SourceGraphic"/></filter></defs><g class="cls-1"><g id="Layer_1"><g class="cls-4"><polygon class="cls-2" points="48.32 18.33 48.32 25.33 39.82 25.33 39.82 27.58 34.62 27.58 34.62 18.33 23.4 18.33 23.4 11.33 16.2 11.33 16.2 4.66 34.62 4.66 34.62 2.41 39.82 2.41 39.82 4.66 45.04 4.66 45.04 11.66 55.79 11.66 55.79 18.33 48.32 18.33"/></g><g><rect class="cls-3" x="40.32" y="12.17" width="14.98" height="5.67"/><path class="cls-5" d="M54.8,12.67v4.67h-13.98v-4.67h13.98m1-1h-15.98v6.67h15.98v-6.67h0Z"/></g><g><rect class="cls-3" x="40.32" y="5.17" width="4.22" height="5.67"/><path class="cls-5" d="M44.04,5.67v4.67h-3.22V5.67h3.22m1-1h-5.22v6.67h5.22V4.67h0Z"/></g><g><rect class="cls-3" x="35.12" y="2.92" width="4.19" height="24.17"/><path class="cls-5" d="M38.82,3.42V26.58h-3.19V3.42h3.19m1-1h-5.19V27.58h5.19V2.42h0Z"/></g><g><rect class="cls-3" x="40.32" y="19.17" width="7.5" height="5.67"/><path class="cls-5" d="M47.32,19.67v4.67h-6.5v-4.67h6.5m1-1h-8.5v6.67h8.5v-6.67h0Z"/></g><g><rect class="cls-3" x="23.9" y="12.17" width="10.22" height="5.67"/><path class="cls-5" d="M33.62,12.67v4.67h-9.22v-4.67h9.22m1-1h-11.22v6.67h11.22v-6.67h0Z"/></g><g><rect class="cls-3" x="16.7" y="5.17" width="17.42" height="5.67"/><path class="cls-5" d="M33.63,5.67v4.67H17.2V5.67h16.42m1-1H16.2v6.67h18.42V4.67h0Z"/></g></g></g></svg>