<?xml version="1.0" encoding="UTF-8"?><svg id="Layer_1" xmlns="http://www.w3.org/2000/svg" viewBox="0 0 72 30"><defs><style>.cls-1{fill:#4c4c4c;}.cls-2{fill:#212121;}</style></defs><g><rect class="cls-1" x="39.94" y="12.5" width="13.38" height="5"/><path class="cls-2" d="M52.82,13v4h-12.38v-4h12.38m1-1h-14.38v6h14.38v-6h0Z"/></g><g><rect class="cls-1" x="39.94" y="6.2" width="3.7" height="5"/><path class="cls-2" d="M43.14,6.7v4h-2.7V6.7h2.7m1-1h-4.7v6h4.7V5.7h0Z"/></g><g><rect class="cls-1" x="35.26" y="4.17" width="3.67" height="21.65"/><path class="cls-2" d="M38.44,4.68V25.32h-2.67V4.68h2.67m1-1h-4.67V26.32h4.67V3.68h0Z"/></g><g><rect class="cls-1" x="39.94" y="18.8" width="6.65" height="5"/><path class="cls-2" d="M46.09,19.3v4h-5.65v-4h5.65m1-1h-7.65v6h7.65v-6h0Z"/></g><g><rect class="cls-1" x="25.16" y="12.5" width="9.1" height="5"/><path class="cls-2" d="M33.76,13v4h-8.1v-4h8.1m1-1h-10.1v6h10.1v-6h0Z"/></g><g><rect class="cls-1" x="18.68" y="6.2" width="15.58" height="5"/><path class="cls-2" d="M33.76,6.7v4h-14.58V6.7h14.58m1-1H18.18v6h16.58V5.7h0Z"/></g></svg>