<?xml version="1.0" encoding="UTF-8"?><svg id="Layer_1" xmlns="http://www.w3.org/2000/svg" viewBox="0 0 72 30"><defs><style>.cls-1{fill:#4c4c4c;}.cls-2{fill:#212121;}</style></defs><g><path class="cls-1" d="M36,26.73c-.21,0-.41-.09-.54-.26-1.92-2.38-8.17-10.46-8.17-14.49,0-4.8,3.91-8.71,8.71-8.71s8.72,3.91,8.72,8.71c0,4.02-6.27,12.11-8.19,14.49-.13,.17-.32,.26-.53,.26Z"/><path class="cls-2" d="M35.99,3.77c4.53,0,8.22,3.68,8.22,8.21,0,3.06-4.17,9.33-8.08,14.19-.03,.04-.08,.06-.13,.06-.04,0-.1-.01-.15-.07-3.9-4.84-8.06-11.1-8.06-14.18,0-4.53,3.68-8.21,8.21-8.21m0-1c-5.08,0-9.21,4.13-9.21,9.21,0,4.09,5.94,11.9,8.28,14.81,.24,.3,.58,.44,.93,.44s.68-.15,.92-.44c2.34-2.9,8.3-10.72,8.3-14.81,0-5.08-4.13-9.21-9.22-9.21h0Z"/></g><path class="cls-2" d="M41.48,11.89c0,3.02-2.47,5.48-5.49,5.48s-5.48-2.46-5.48-5.48,2.44-5.49,5.48-5.49,5.49,2.46,5.49,5.49Z"/><path class="cls-2" d="M35.99,6.4c3.02,0,5.49,2.46,5.49,5.49s-2.47,5.48-5.49,5.48-5.48-2.46-5.48-5.48,2.44-5.49,5.48-5.49m0-.25c-3.16,0-5.73,2.58-5.73,5.74s2.57,5.73,5.73,5.73,5.74-2.57,5.74-5.73-2.58-5.74-5.74-5.74h0Z"/></svg>