<?xml version="1.0" encoding="UTF-8"?><svg id="Layer_1" xmlns="http://www.w3.org/2000/svg" viewBox="0 0 72 30"><defs><style>.cls-1{fill:#212121;}.cls-2{fill:#7f7f7f;}</style></defs><g><path class="cls-2" d="M36,27.33c-.23,0-.44-.1-.58-.28-2.01-2.5-8.58-10.98-8.58-15.21,0-5.05,4.11-9.16,9.16-9.16s9.17,4.11,9.17,9.16c0,4.22-6.58,12.71-8.59,15.22-.14,.18-.35,.28-.57,.28Z"/><path class="cls-1" d="M35.99,3.17c4.78,0,8.67,3.88,8.67,8.66,0,3.23-4.38,9.81-8.49,14.91-.06,.07-.13,.09-.18,.09-.04,0-.13-.01-.19-.09-4.09-5.08-8.47-11.66-8.47-14.9,0-4.77,3.88-8.66,8.66-8.66m0-1c-5.33,0-9.66,4.33-9.66,9.66,0,4.29,6.24,12.49,8.69,15.53,.25,.31,.61,.47,.97,.47s.72-.16,.96-.47c2.45-3.05,8.7-11.24,8.7-15.53,0-5.33-4.33-9.66-9.67-9.66h0Z"/></g><path class="cls-1" d="M41.75,11.74c0,3.17-2.59,5.74-5.76,5.74s-5.74-2.58-5.74-5.74,2.56-5.76,5.74-5.76,5.76,2.58,5.76,5.76Z"/><path class="cls-1" d="M35.99,5.98c3.17,0,5.76,2.58,5.76,5.76s-2.59,5.74-5.76,5.74-5.74-2.58-5.74-5.74,2.56-5.76,5.74-5.76m0-.25c-3.31,0-5.99,2.7-5.99,6.01s2.69,5.99,5.99,5.99,6.01-2.69,6.01-5.99-2.7-6.01-6.01-6.01h0Z"/></svg>