<?xml version="1.0" encoding="UTF-8"?><svg id="Layer_1" xmlns="http://www.w3.org/2000/svg" xmlns:xlink="http://www.w3.org/1999/xlink" viewBox="0 0 72 30"><defs><style>.cls-1,.cls-2,.cls-3{fill:#e5e5e5;}.cls-1,.cls-3{stroke:#e5e5e5;stroke-miterlimit:10;}.cls-4{fill:#212121;}.cls-3{filter:url(#outer-glow-6);}</style><filter id="outer-glow-6" filterUnits="userSpaceOnUse"><feOffset dx="0" dy="0"/><feGaussianBlur result="blur" stdDeviation=".85"/><feFlood flood-color="#e5e5e5" flood-opacity="1"/><feComposite in2="blur" operator="in"/><feComposite in="SourceGraphic"/></filter></defs><path class="cls-3" d="M45.66,11.83c0,4.29-6.25,12.49-8.7,15.53-.49,.62-1.43,.62-1.93,0-2.45-3.05-8.69-11.24-8.69-15.53,0-5.33,4.33-9.66,9.66-9.66s9.67,4.33,9.67,9.66Z"/><path class="cls-1" d="M45.66,11.83c0,4.29-6.25,12.49-8.7,15.53-.49,.62-1.43,.62-1.93,0-2.45-3.05-8.69-11.24-8.69-15.53,0-5.33,4.33-9.66,9.66-9.66s9.67,4.33,9.67,9.66Z"/><g><path class="cls-2" d="M36,27.33c-.23,0-.44-.1-.58-.28-2.01-2.5-8.58-10.98-8.58-15.21,0-5.05,4.11-9.16,9.16-9.16s9.17,4.11,9.17,9.16c0,4.22-6.58,12.71-8.59,15.22-.14,.18-.35,.28-.57,.28Z"/><path class="cls-4" d="M35.99,3.17c4.78,0,8.67,3.88,8.67,8.66,0,3.23-4.38,9.81-8.49,14.91-.06,.07-.13,.09-.18,.09-.04,0-.13-.01-.19-.09-4.09-5.08-8.47-11.66-8.47-14.9,0-4.77,3.88-8.66,8.66-8.66m0-1c-5.33,0-9.66,4.33-9.66,9.66,0,4.29,6.24,12.49,8.69,15.53,.25,.31,.61,.47,.97,.47s.72-.16,.96-.47c2.45-3.05,8.7-11.24,8.7-15.53,0-5.33-4.33-9.66-9.67-9.66h0Z"/></g><path class="cls-4" d="M41.75,11.74c0,3.17-2.59,5.74-5.76,5.74s-5.74-2.58-5.74-5.74,2.56-5.76,5.74-5.76,5.76,2.58,5.76,5.76Z"/><g><path class="cls-4" d="M35.99,16.37c-2.55,0-4.63-2.08-4.63-4.63s2.08-4.64,4.63-4.64,4.65,2.08,4.65,4.64-2.08,4.63-4.65,4.63Z"/><path class="cls-2" d="M35.99,7.34c2.42,0,4.4,1.97,4.4,4.4s-1.97,4.38-4.4,4.38-4.38-1.97-4.38-4.38,1.97-4.4,4.38-4.4m0-.5c-2.71,0-4.88,2.19-4.88,4.9s2.18,4.88,4.88,4.88,4.9-2.19,4.9-4.88-2.2-4.9-4.9-4.9h0Z"/></g></svg>