<?xml version="1.0" encoding="UTF-8"?><svg id="Layer_1" xmlns="http://www.w3.org/2000/svg" viewBox="0 0 72 30"><defs><style>.cls-1{fill:#7c7c7c;}.cls-2{fill:#232323;}</style></defs><path class="cls-1" d="M33.37,27.82c-.46,0-.8-.15-1.04-.45-.48-.61-.49-1.84-.01-3.75l.71-2.96c.47-1.94,.88-3.62,1.35-5.72,.14-.65,.27-1.34,.11-1.53-.02-.03-.07-.07-.18-.07-.41,0-1.19,.57-2.09,1.52l-.11,.12-.49-.76,.06-.07c1.84-2.16,4.68-3.98,6.21-3.98,.44,0,.75,.12,.96,.38,.46,.57,.41,1.72-.18,4.4-.66,2.81-1.32,5.61-1.99,8.38-.21,.82-.11,1.11-.04,1.21,.04,.06,.1,.08,.19,.08,.22,0,.93-.33,2.09-1.56l.11-.12,.44,.72-.05,.07c-2.18,2.83-4.61,4.1-6.06,4.1Zm4.67-20.87c-1.18,0-1.92-.81-1.92-2.11,0-1.1,.75-2.66,2.42-2.66,1.24,0,1.8,1.04,1.8,2.07,0,1.33-.86,2.7-2.3,2.7Z"/><path class="cls-2" d="M38.55,2.31c1.13,0,1.67,.93,1.67,1.95,0,1.32-.86,2.57-2.18,2.57-1.09,0-1.79-.74-1.79-1.99,0-1.13,.78-2.53,2.3-2.53m-.66,7.98c1.36,0,1.4,1.25,.66,4.63-.66,2.8-1.32,5.61-1.99,8.37-.27,1.09-.08,1.44,.27,1.44,.27,0,1.01-.35,2.18-1.6l.31,.51c-2.22,2.88-4.63,4.05-5.96,4.05-1.25,0-1.63-1.21-.93-4.05,.82-3.43,1.36-5.61,2.06-8.68,.27-1.25,.27-1.75-.19-1.75-.55,0-1.48,.82-2.18,1.56l-.35-.55c1.79-2.1,4.63-3.93,6.11-3.93m.66-8.23c-1.59,0-2.55,1.41-2.55,2.78s.8,2.24,2.04,2.24c1.52,0,2.43-1.43,2.43-2.82,0-1.09-.59-2.2-1.92-2.2h0Zm-.66,7.98c-1.56,0-4.45,1.84-6.3,4.02l-.12,.14,.1,.16,.35,.55,.17,.27,.22-.23c.85-.9,1.64-1.48,2-1.48,.03,0,.07,0,.08,.02,.09,.12,.05,.6-.13,1.43-.48,2.09-.88,3.77-1.35,5.71-.22,.91-.45,1.88-.71,2.97-.48,1.95-.47,3.21,.04,3.86,.26,.33,.64,.5,1.14,.5,1.47,0,3.95-1.28,6.16-4.15l.11-.14-.09-.15-.31-.51-.17-.28-.22,.24c-1.17,1.24-1.84,1.52-2,1.52-.06,0-.08-.02-.09-.03-.04-.05-.15-.27,.06-1.1,.66-2.77,1.32-5.57,1.99-8.38,.6-2.73,.64-3.91,.15-4.51-.23-.29-.58-.43-1.06-.43h0Z"/></svg>