<?xml version="1.0" encoding="UTF-8"?>
<svg 
    xmlns="http://www.w3.org/2000/svg" 
    xmlns:xlink="http://www.w3.org/1999/xlink" 
    viewBox="0 0 72 30">
    <defs>
        <style>
            .cls-1
                {
                    isolation:isolate;
                }
            .cls-2
                {
                    stroke : #e5e5e5;
                    stroke-width : 1;
                    stroke-miterlimit : 10;
                }
            .cls-2,.cls-3
                {
                    fill:#e5e5e5;
                }
            .cls-4
                {
                    fill:#212121;
                }
            .cls-5
                {
                    filter : url(#outer-glow-2);
                    mix-blend-mode : color-dodge;
                }
        </style>
        <filter id="outer-glow-2" filterUnits="userSpaceOnUse">
            <feOffset dx="0" dy="0"/>
            <feGaussianBlur result="blur" stdDeviation=".85"/>
            <feFlood flood-color="#e5e5e5" flood-opacity="1"/>
            <feComposite in2="blur" operator="in"/>
            <feComposite in="SourceGraphic"/>
        </filter>
    </defs>
        <g class="cls-1">
            <g id="Layer_1">
                <g class="cls-5">
                    <path class="cls-2" d="M36,2.47 l14.65,8.27-3.77,2.13,3.77,2.13-3.77,2.12,3.77,2.13-14.65,8.27-14.65-8.27,3.77-2.13-3.77-2.12,3.77-2.13-3.77-2.13L36,2.47m0-.31l-.13,.07-14.65,8.27-.42,.23,.42,.24,3.36,1.9-3.36,1.9-.42,.24,.42,.23,3.35,1.89-3.35,1.9-.42,.24,.42,.23,14.65,8.27,.13,.07,.13-.07,14.65-8.27,.42-.23-.42-.24-3.35-1.9,3.35-1.89,.42-.23-.42-.24-3.36-1.9,3.36-1.9,.42-.24-.42-.23L36.13,2.23l-.13-.07h0Z"/>
                </g>
                <g>
                    <polygon class="cls-3" points="22.37 19.26 25.37 17.56 29.14 15.44 36 11.55 42.87 15.44 46.64 17.56 49.64 19.26 36 26.96 22.37 19.26"/>
                    <path class="cls-4" d="M36,12.13 l6.62,3.75,3.77,2.12,2.23,1.26-12.62,7.12-12.62-7.12,2.23-1.26,3.77-2.12,6.62-3.74m0-1.15l-7.11,4.02-3.77,2.12-3.77,2.13,14.65,8.27,14.65-8.27-3.77-2.13-3.77-2.12-7.11-4.02h0Z"/>
                </g>
                <g>
                    <polygon class="cls-3" points="25.37 16.69 22.37 15 36 7.3 49.64 15 46.64 16.69 36 22.7 25.37 16.69"/>
                    <path class="cls-4" d="M36,7.87l10.39,5.87,2.23,1.26-2.23,1.26-10.39,5.87-10.39-5.87-2.23-1.25,2.23-1.26,10.39-5.87m0-1.15l-10.88,6.15-3.77,2.13,3.77,2.12,10.88,6.15,10.88-6.15,3.77-2.12-3.77-2.13-10.88-6.15h0Z"/>
                </g>
                <g>
                    <polygon class="cls-3" points="29.14 14.57 22.37 10.74 36 3.04 49.64 10.74 42.87 14.57 36 18.44 29.14 14.57"/>
                    <path class="cls-4" d="M36,3.61l12.62,7.12-6,3.39-6.62,3.74-6.62-3.74-6-3.39,12.62-7.12m0-1.15l-14.65,8.27,7.54,4.27,7.11,4.01,7.11-4.01,7.54-4.27L36,2.47h0Z"/>
                </g>
            </g>
        </g>
</svg>