<?xml version="1.0" encoding="UTF-8"?><svg id="Layer_1" xmlns="http://www.w3.org/2000/svg" viewBox="0 0 72 30"><defs><style>.cls-1{fill:#4c4c4c;}.cls-2{fill:#232323;}</style></defs><path class="cls-1" d="M33.63,26.55c-.41,0-.73-.14-.95-.41-.43-.56-.44-1.66-.01-3.39l.65-2.69c.42-1.74,.78-3.24,1.21-5.12,.13-.58,.24-1.2,.1-1.37-.02-.03-.06-.06-.15-.06-.36,0-1.08,.52-1.87,1.36l-.11,.12-.45-.7,.06-.07c1.65-1.94,4.22-3.58,5.6-3.58,.4,0,.69,.11,.88,.35,.41,.51,.37,1.55-.16,3.97-.6,2.53-1.19,5.05-1.79,7.54-.18,.74-.1,.99-.03,1.08,.02,.03,.06,.07,.16,.07,.19,0,.83-.29,1.87-1.4l.11-.12,.41,.67-.05,.07c-1.97,2.55-4.16,3.69-5.46,3.69Zm4.21-18.79c-1.07,0-1.74-.73-1.74-1.91,0-1,.68-2.4,2.19-2.4,1.13,0,1.63,.94,1.63,1.88,0,1.2-.78,2.44-2.09,2.44Z"/><path class="cls-2" d="M38.3,3.58c1.02,0,1.51,.84,1.51,1.75,0,1.19-.77,2.31-1.96,2.31-.98,0-1.61-.67-1.61-1.79,0-1.02,.7-2.28,2.07-2.28m-.6,7.18c1.23,0,1.26,1.12,.6,4.17-.6,2.52-1.19,5.05-1.79,7.54-.25,.98-.07,1.3,.25,1.3,.24,0,.91-.32,1.96-1.44l.28,.46c-2,2.59-4.17,3.65-5.36,3.65-1.12,0-1.47-1.09-.84-3.65,.74-3.08,1.23-5.05,1.86-7.81,.25-1.12,.25-1.58-.18-1.58-.49,0-1.33,.74-1.96,1.4l-.32-.49c1.61-1.89,4.17-3.54,5.5-3.54m.6-7.43c-1.45,0-2.32,1.29-2.32,2.53s.73,2.04,1.86,2.04c1.38,0,2.21-1.3,2.21-2.56,0-1-.54-2-1.76-2h0Zm-.6,7.18c-1.41,0-4.02,1.66-5.69,3.63l-.12,.14,.1,.16,.32,.49,.17,.27,.22-.23c.76-.8,1.46-1.32,1.78-1.32,.04,0,.05,0,.06,0,.05,.04,.09,.27-.12,1.27-.43,1.88-.79,3.39-1.21,5.14-.2,.82-.41,1.69-.64,2.67-.43,1.76-.42,2.9,.04,3.49,.24,.31,.59,.46,1.04,.46,1.33,0,3.57-1.16,5.56-3.74l.11-.14-.09-.15-.28-.46-.17-.28-.22,.24c-1.04,1.11-1.65,1.36-1.78,1.36-.04,0-.05-.01-.06-.02-.02-.03-.13-.22,.06-.97,.6-2.49,1.19-5.01,1.79-7.54,.54-2.47,.57-3.54,.13-4.08-.21-.27-.53-.4-.97-.4h0Z"/></svg>