<?xml version="1.0" encoding="UTF-8"?><svg id="Layer_1" xmlns="http://www.w3.org/2000/svg" xmlns:xlink="http://www.w3.org/1999/xlink" viewBox="0 0 72 30"><defs><style>.cls-1{fill:#232323;}.cls-2{filter:url(#outer-glow-1);}.cls-3{fill:#e5e5e5;}</style><filter id="outer-glow-1" filterUnits="userSpaceOnUse"><feOffset dx="0" dy="0"/><feGaussianBlur result="blur" stdDeviation="1"/><feFlood flood-color="#e5e5e5" flood-opacity="1"/><feComposite in2="blur" operator="in"/><feComposite in="SourceGraphic"/></filter></defs><g class="cls-2"><g><g><path class="cls-3" d="M38.04,7.72c-1.61,0-2.69-1.16-2.69-2.89s1.2-3.43,3.2-3.43c1.49,0,2.57,1.2,2.57,2.85s-1.15,3.47-3.08,3.47Zm.51-4.92c-1.24,0-1.8,1.19-1.8,2.03,0,.56,.17,1.49,1.29,1.49,1.05,0,1.68-1.05,1.68-2.07,0-.24-.06-1.45-1.17-1.45Z"/><path class="cls-3" d="M38.55,1.9c1.22,0,2.07,.97,2.07,2.35,0,1.46-.96,2.97-2.58,2.97-1.33,0-2.19-.94-2.19-2.39s1.01-2.93,2.7-2.93m-.51,4.92c1.33,0,2.18-1.25,2.18-2.57,0-1.01-.54-1.95-1.67-1.95-1.52,0-2.3,1.4-2.3,2.53,0,1.25,.7,1.99,1.79,1.99m.51-5.92c-2.32,0-3.7,2-3.7,3.93s1.31,3.39,3.19,3.39c2.24,0,3.58-2.02,3.58-3.97s-1.29-3.35-3.07-3.35h0Zm-.51,4.92c-.22,0-.79,0-.79-.99,0-.5,.32-1.53,1.3-1.53,.6,0,.67,.66,.67,.95,0,.77-.44,1.57-1.18,1.57h0Z"/></g><g><path class="cls-3" d="M33.37,28.59c-.7,0-1.27-.26-1.65-.75-.65-.83-.7-2.19-.15-4.41l.71-2.97c.47-1.94,.87-3.62,1.35-5.71,.02-.08,.03-.15,.05-.21-.24,.2-.54,.47-.9,.84l-.79,.84-.61-.98-.7-1.09,.42-.51c2-2.35,5.05-4.25,6.81-4.25,.68,0,1.2,.22,1.56,.67,.65,.8,.65,2.03-.02,5.06-.55,2.36-1.11,4.7-1.67,7.03l-.29,1.23c.24-.2,.54-.47,.9-.86l.79-.86,.94,1.51,.31,.53-.35,.48c-2.35,3.05-5.05,4.41-6.68,4.41Z"/><path class="cls-3" d="M37.89,9.89c.52,0,.91,.16,1.17,.48,.53,.65,.5,1.82-.12,4.64-.66,2.81-1.33,5.61-1.99,8.38-.17,.69-.11,.92-.11,.94,.15-.01,.8-.31,1.89-1.47l.35-.38,.28,.45,.31,.5,.14,.24-.16,.22c-2.24,2.9-4.77,4.2-6.28,4.2-.54,0-.97-.19-1.26-.56-.54-.69-.56-1.96-.06-3.98,.26-1.09,.49-2.06,.71-2.97,.47-1.94,.87-3.62,1.35-5.71,.18-.82,.19-1.14,.17-1.26-.28,.03-.96,.48-1.87,1.43l-.35,.37-.27-.43-.35-.54-.16-.25,.19-.23c1.88-2.21,4.82-4.07,6.42-4.07m0-1c-2.14,0-5.33,2.25-7.18,4.42l-.2,.24-.46,.56,.39,.61,.16,.25,.35,.54,.26,.42,.69,1.09,.89-.94,.02-.02c-.31,1.33-.63,2.66-1.02,4.27-.17,.68-.34,1.4-.52,2.18l-.19,.8c-.59,2.37-.51,3.86,.25,4.83,.48,.61,1.2,.94,2.05,.94,2.14,0,4.92-1.8,7.07-4.59l.18-.24,.38-.53-.33-.56-.14-.24-.32-.52-.28-.45-.69-1.12-.87,.95c.52-2.17,1.04-4.35,1.55-6.55,.64-2.89,.78-4.44-.08-5.5-.31-.39-.91-.85-1.95-.85h0Z"/></g></g></g><g><path class="cls-3" d="M33.37,28.19c-.72,0-1.12-.33-1.34-.6-.56-.72-.59-2.01-.08-4.07l.71-2.96c.47-1.94,.87-3.62,1.35-5.71,.14-.63,.17-.95,.17-1.11-.29,.1-.88,.5-1.7,1.37l-.44,.46-.9-1.39,.24-.28c1.9-2.23,4.87-4.11,6.49-4.11,.55,0,.98,.18,1.25,.52,.61,.76,.44,2.25-.1,4.72l-.06,.26c-.64,2.72-1.29,5.44-1.93,8.12-.11,.43-.12,.67-.11,.79,.21-.09,.77-.4,1.71-1.4l.45-.48,.84,1.36-.21,.27c-2.26,2.93-4.82,4.25-6.35,4.25Zm4.67-20.87c-1.39,0-2.29-.98-2.29-2.49s1.05-3.03,2.8-3.03c1.28,0,2.17,1.01,2.17,2.45s-1,3.07-2.68,3.07Z"/><path class="cls-1" d="M38.55,2.31c1.13,0,1.67,.93,1.67,1.95,0,1.32-.86,2.57-2.18,2.57-1.09,0-1.79-.74-1.79-1.99,0-1.13,.78-2.53,2.3-2.53m-.66,7.98c1.36,0,1.4,1.25,.66,4.63-.66,2.8-1.32,5.61-1.99,8.37-.27,1.09-.08,1.44,.27,1.44,.27,0,1.01-.35,2.18-1.6l.31,.51c-2.22,2.88-4.63,4.05-5.96,4.05-1.25,0-1.64-1.21-.93-4.05,.82-3.43,1.36-5.61,2.06-8.68,.27-1.25,.27-1.75-.19-1.75-.55,0-1.48,.82-2.18,1.56l-.35-.55c1.79-2.1,4.63-3.93,6.11-3.93m.66-8.98c-2.06,0-3.3,1.8-3.3,3.53s1.12,2.99,2.79,2.99c1.78,0,3.18-1.57,3.18-3.57,0-1.74-1.1-2.95-2.67-2.95h0Zm-.66,7.98c-1.99,0-5.12,2.22-6.87,4.28l-.48,.56,.4,.62,.35,.55,.69,1.07,.88-.93c.24-.25,.46-.47,.66-.64-.47,2.05-.87,3.71-1.33,5.63-.22,.91-.45,1.88-.71,2.97-.55,2.24-.5,3.63,.18,4.49,.28,.36,.81,.79,1.73,.79,1.54,0,4.23-1.16,6.75-4.44l.42-.55-.36-.59-.31-.51-.69-1.11-.89,.95c-.24,.26-.46,.47-.65,.64,.63-2.63,1.26-5.29,1.88-7.94,.59-2.7,.75-4.23,0-5.16-.38-.47-.93-.71-1.64-.71h0Z"/></g></svg>