<?xml version="1.0" encoding="UTF-8"?><svg xmlns="http://www.w3.org/2000/svg" xmlns:xlink="http://www.w3.org/1999/xlink" viewBox="0 0 72 30"><defs><style>.cls-1,.cls-2{fill:#e2e2e2;}.cls-3{isolation:isolate;}.cls-4{fill:none;stroke:#171c21;stroke-linecap:round;}.cls-4,.cls-2{stroke-miterlimit:10;}.cls-2{stroke:#e5e5e5;}.cls-5{fill:#171c21;}.cls-6{filter:url(#outer-glow-4);mix-blend-mode:color-dodge;}</style><filter id="outer-glow-4" filterUnits="userSpaceOnUse"><feOffset dx="0" dy="0"/><feGaussianBlur result="blur" stdDeviation=".85"/><feFlood flood-color="#e5e5e5" flood-opacity="1"/><feComposite in2="blur" operator="in"/><feComposite in="SourceGraphic"/></filter></defs><g class="cls-3"><g id="Layer_1"><g class="cls-6"><path class="cls-2" d="M25.75,9.51l1-6.54h19.5l-1,6.54h-6.12l-2.89,17.53h-7.21l2.89-17.53h-6.17Z"/></g><g><polygon class="cls-1" points="29.62 26.53 32.51 9.01 26.33 9.01 27.18 3.47 45.67 3.47 44.82 9.01 38.7 9.01 35.81 26.53 29.62 26.53"/><path class="cls-5" d="M45.08,3.97l-.69,4.54h-6.11l-.14,.84-2.75,16.69h-5.18l2.7-16.36,.19-1.16h-6.18l.69-4.54h17.48m1.16-1H26.75l-1,6.54h6.17l-2.89,17.53h7.21l2.89-17.53h6.12l1-6.54h0Z"/></g><line class="cls-4" x1="36" y1="5.53" x2="32.89" y2="24.69"/></g></g></svg>