<?xml version="1.0" encoding="UTF-8"?><svg id="Layer_1" xmlns="http://www.w3.org/2000/svg" viewBox="0 0 72 30"><defs><style>.cls-1{fill:#333;}.cls-2{fill:#7f7f7f;}</style></defs><path class="cls-2" d="m26.75,15.06h18.91v6.78c0,1.53-1.24,2.77-2.77,2.77h-13.37c-1.53,0-2.77-1.24-2.77-2.77v-6.78h0Z"/><path class="cls-2" d="m28.08,8.18h13.37c1.53,0,2.77,1.24,2.77,2.77v.45h-18.91v-.45c0-1.53,1.24-2.77,2.77-2.77Z" transform="translate(-1 14.8) rotate(-23.71)"/><rect class="cls-2" x="26.43" y="13.53" width="3.78" height=".8" transform="translate(-3.21 12.56) rotate(-23.71)"/><rect class="cls-2" x="40.28" y="7.45" width="3.78" height=".8" transform="translate(.4 17.62) rotate(-23.71)"/><rect class="cls-2" x="33.36" y="10.49" width="3.78" height=".8" transform="translate(-1.4 15.09) rotate(-23.71)"/><rect class="cls-1" x="29.89" y="12.01" width="3.78" height=".8" transform="translate(-2.31 13.83) rotate(-23.71)"/><rect class="cls-1" x="36.82" y="8.97" width="3.78" height=".8" transform="translate(-.5 16.36) rotate(-23.71)"/><rect class="cls-2" x="26.75" y="15.06" width="3.78" height=".8"/><rect class="cls-2" x="41.88" y="15.06" width="3.78" height=".8"/><rect class="cls-2" x="34.32" y="15.06" width="3.78" height=".8"/><rect class="cls-1" x="30.53" y="15.06" width="3.78" height=".8"/><rect class="cls-1" x="38.1" y="15.06" width="3.78" height=".8"/><path class="cls-1" d="m38.06,19.33l-3.26-1.88c-.39-.23-.88.06-.88.51v3.76c0,.45.49.73.88.51l3.26-1.88c.39-.23.39-.79,0-1.01Z"/></svg>