<?xml version="1.0" encoding="UTF-8"?>
<svg id="uuid-96887676-c313-40f2-8382-37522810f064" data-name="Layer 1" xmlns="http://www.w3.org/2000/svg" viewBox="0 0 18.27 13.83">
  <defs>
    <style>
      .uuid-b3263266-aa86-4195-a767-24d2006818af {
        fill: #2772cc;
      }

      .uuid-b3263266-aa86-4195-a767-24d2006818af, .uuid-9c849aee-d334-4b80-94da-5ddbc1b334e6 {
        stroke-width: 0px;
      }

      .uuid-9c849aee-d334-4b80-94da-5ddbc1b334e6 {
        fill: #e5e5e5;
      }
    </style>
  </defs>
  <path class="uuid-9c849aee-d334-4b80-94da-5ddbc1b334e6" d="M3.99,13.83C.52,13.83-.13,11.79.02,9.47h2.8c0,1.28.06,2.36,1.59,2.36.95,0,1.41-.61,1.41-1.52C5.82,7.9.19,7.75.19,3.76.19,1.67,1.19,0,4.6,0c2.73,0,4.08,1.22,3.89,4.02h-2.73c0-1-.17-2.02-1.3-2.02-.91,0-1.45.5-1.45,1.43,0,2.54,5.64,2.32,5.64,6.53,0,3.47-2.54,3.87-4.67,3.87Z"/>
  <path class="uuid-b3263266-aa86-4195-a767-24d2006818af" d="M9.61,6.92c0-3.54,0-6.92,4.62-6.92,2.86,0,4.01,1.58,3.89,4.45h-2.74c0-1.78-.31-2.45-1.15-2.45-1.58,0-1.78,1.48-1.78,4.91s.2,4.91,1.78,4.91c1.3,0,1.24-1.67,1.28-2.73h2.76c0,3.58-1.43,4.73-4.04,4.73-4.62,0-4.62-3.41-4.62-6.92Z"/>
</svg>