<?xml version="1.0" encoding="iso-8859-1"?>
<!-- Generator: Adobe Illustrator 19.0.1, SVG Export Plug-In . SVG Version: 6.00 Build 0)  -->
<svg version="1.1" xmlns="http://www.w3.org/2000/svg" xmlns:xlink="http://www.w3.org/1999/xlink" x="0px" y="0px"
	 viewBox="0 0 128 128" style="enable-background:new 0 0 128 128;" xml:space="preserve">
<g id="_x32_">
	<path id="icon_1_" style="fill:#e6e6e6;" d="M98.497,11.215L29.619,0.057c-2.666-0.432-5.084,1.626-5.084,4.327v97.59
		c0,1.713,0.998,3.269,2.555,3.984l46.495,21.343c1.096,1.373,3.302,0.584,3.302-1.169v-8.299l19.243,4.793
		c0.482,0.117,0.964,0.175,1.432,0.175c1.315,0,2.572-0.438,3.638-1.257c1.432-1.125,2.265-2.82,2.265-4.646V17.045
		C103.465,14.137,101.376,11.683,98.497,11.215z M99.082,116.898c0,0.643-0.365,1.023-0.584,1.198
		c-0.219,0.161-0.687,0.438-1.315,0.278l-20.295-5.055V74.964l5.581-4.88V21.092c0-1.622-1.052-3.054-2.586-3.536l-31.122-9.95
		l49.035,7.934c0.745,0.132,1.286,0.76,1.286,1.505V116.898z" />
</g>
<g id="Layer_1">
</g>
</svg>
