<?xml version="1.0" encoding="UTF-8"?>
<svg id="uuid-69bb0cc1-9e95-41bb-a5d9-aa44d4f7a2d9" data-name="Layer_1" xmlns="http://www.w3.org/2000/svg" viewBox="0 0 64.94 11.11">
  <defs>
    <style>
      .uuid-b746198d-2a2e-44a9-8e07-9d9d02bc3be9 {
        fill: #e5e5e5;
      }
    </style>
  </defs>
  <path class="uuid-b746198d-2a2e-44a9-8e07-9d9d02bc3be9" d="M8.58,1.49s-.01.09-.03.16-.05.13-.09.2-.08.13-.13.18-.1.1-.15.12c-.1.05-.2.09-.3.11s-.21.05-.35.08c-.36.07-.71.13-1.05.18s-.67.08-.98.11-.59.05-.84.06-.47.02-.64.02h-1.21c-.11,0-.21,0-.3-.01-.01.13-.02.29-.03.47s-.02.37-.03.56-.02.38-.04.55-.03.33-.05.45c.11.01.23.02.37.02s.28,0,.41,0c.19,0,.38,0,.57-.02s.35-.03.47-.04c.06,0,.16-.02.29-.02s.27-.02.42-.03.3-.03.44-.04.25-.03.34-.05c.08-.04.15-.07.22-.09s.13-.05.2-.07.13-.03.2-.04.14-.01.22-.01c.11,0,.19.02.26.06s.12.1.16.16.07.15.08.23.02.18.02.27c0,.12-.03.21-.1.29s-.14.14-.24.18-.19.09-.3.11-.19.05-.27.06c-.07.02-.18.03-.35.05s-.37.03-.59.05-.46.03-.71.05-.48.03-.71.04-.42.02-.59.03-.3.01-.37.01c-.12,0-.23,0-.33.03s-.21.04-.32.08c-.05.19-.08.39-.11.61s-.07.45-.12.69c-.02.09-.04.19-.06.29s-.04.19-.06.28-.03.17-.04.24-.02.13-.02.18c.08,0,.18,0,.28,0s.22,0,.34-.02.24-.02.35-.03.23-.02.34-.03c.28-.02.51-.04.71-.06s.38-.03.53-.05.3-.03.44-.04.28-.04.44-.06c.08-.01.18-.02.3-.04s.23-.02.36-.04.25-.03.37-.05.24-.04.34-.07c.06-.02.13-.04.19-.06s.13-.05.2-.07.13-.04.2-.06.14-.02.21-.02c.08,0,.16.02.24.05s.14.08.2.15.11.14.14.23.05.18.05.28c0,.04-.02.08-.06.15s-.09.13-.15.19-.14.12-.23.18-.19.09-.29.11c-.34.07-.69.12-1.04.16s-.73.08-1.15.14l-.9.11c-.3.04-.58.07-.84.1s-.48.06-.68.09-.34.05-.43.07c-.09.02-.19.04-.29.07s-.2.06-.31.08-.2.05-.3.07-.18.03-.25.03h-.01c-.14,0-.26-.02-.37-.05s-.19-.09-.26-.18-.12-.2-.16-.34-.06-.32-.06-.54c0-.17.02-.35.07-.56s.09-.45.15-.74c.05-.27.11-.52.16-.75s.1-.45.14-.66.09-.43.12-.64.07-.44.08-.69c0-.03,0-.09.02-.2s.02-.23.03-.38.02-.3.03-.46.02-.32.04-.46.02-.27.03-.38,0-.17,0-.21c0-.03,0-.07-.01-.12s-.01-.09-.01-.12c0-.09.02-.19.05-.3s.08-.22.16-.33c.04-.06.1-.12.18-.18s.18-.12.28-.17.2-.09.31-.12.19-.05.27-.05c.04,0,.11,0,.2.02s.19.03.29.05.19.04.28.05.15.02.19.02c.09,0,.21,0,.37,0s.32,0,.51,0c.34,0,.69-.01,1.04-.04s.7-.07,1.06-.13c.16-.03.31-.06.45-.11s.28-.08.41-.13.27-.08.41-.11.28-.04.43-.04c.07,0,.15.02.22.05s.14.08.2.13.11.12.15.19.06.14.06.22Z"/>
  <path class="uuid-b746198d-2a2e-44a9-8e07-9d9d02bc3be9" d="M18.35,4.84c0,.08-.03.18-.08.3s-.13.26-.23.41-.21.3-.33.47-.26.33-.39.49-.27.31-.41.46-.27.28-.39.39c-.13.12-.27.25-.44.4s-.33.28-.52.41-.37.24-.56.33-.37.13-.55.13c-.13,0-.26-.03-.39-.09-.18-.08-.32-.21-.43-.38s-.2-.35-.27-.56-.12-.42-.14-.64-.04-.42-.05-.61c-.08.16-.18.33-.3.51s-.25.36-.4.54-.29.35-.45.52-.31.32-.45.46c-.39.36-.79.62-1.2.8s-.84.27-1.28.27c-.16,0-.29-.04-.41-.12s-.21-.18-.28-.3-.13-.26-.16-.4-.05-.29-.05-.42c0-.18,0-.34.03-.47s.04-.24.07-.33c.16-.48.34-.93.55-1.36s.46-.85.76-1.27c.08-.12.18-.24.29-.38s.23-.27.36-.4.26-.25.39-.36.26-.2.39-.26c.15-.08.33-.14.54-.18s.45-.06.73-.06c.11,0,.2.03.29.1s.16.15.23.25.13.22.18.36.09.27.13.41c.02-.11.04-.25.06-.4s.04-.31.06-.48l.05-.5c.02-.17.03-.32.04-.47.02-.15.03-.33.05-.52s.04-.39.06-.57.04-.35.07-.5.05-.24.08-.29c.05-.1.13-.18.24-.23s.24-.08.41-.08c.07,0,.14,0,.2.02s.12.04.19.07c.21.08.31.2.31.35,0,.06-.01.17-.04.33s-.06.36-.11.62-.1.58-.17.96-.14.83-.22,1.35c-.05.3-.08.59-.11.85s-.04.53-.04.8c0,.02,0,.08,0,.18s.02.22.03.35.03.27.05.42.05.28.08.41.07.23.11.31.09.12.15.12c.09,0,.19-.03.3-.08s.23-.12.35-.21.24-.18.37-.29.25-.22.36-.33.23-.22.33-.33.2-.21.28-.29c.22-.23.44-.46.65-.68s.4-.42.57-.58c.01-.01.03-.02.07-.03s.07-.02.1-.03.07-.01.1-.02.05,0,.06,0c.03,0,.06.01.07.04s.03.05.04.09.01.08.01.13,0,.1,0,.15ZM12.06,6.33c.05-.07.11-.15.17-.24s.11-.19.16-.29c-.05-.06-.09-.13-.12-.21s-.04-.17-.04-.28c0-.09,0-.16.01-.23s.01-.12.01-.17c0-.05-.02-.12-.05-.21s-.07-.16-.11-.24-.09-.14-.14-.2-.1-.08-.14-.08c-.06,0-.15.05-.27.16s-.25.24-.39.4-.29.34-.44.54-.28.38-.39.57c-.12.2-.24.39-.34.57s-.18.33-.24.46c-.1.23-.17.42-.21.59s-.06.32-.06.47c0,.24.04.36.13.36.08,0,.18-.03.32-.1s.28-.15.43-.24.31-.21.46-.33.28-.23.39-.34c.22-.23.4-.42.54-.58s.25-.29.33-.4Z"/>
  <path class="uuid-b746198d-2a2e-44a9-8e07-9d9d02bc3be9" d="M22.97,5.91c0,.09-.03.2-.1.34s-.16.29-.28.46-.26.35-.42.54-.34.39-.53.59c-.21.22-.43.44-.67.66s-.5.42-.77.62c-.27.2-.54.35-.8.45s-.51.16-.74.16c-.27,0-.51-.05-.71-.14s-.37-.22-.52-.38-.26-.34-.35-.54-.16-.42-.21-.65-.09-.46-.11-.69-.03-.46-.03-.67c0-.08,0-.21.02-.37s.03-.34.05-.52.04-.36.07-.53.05-.3.08-.4c.06-.19.19-.37.4-.54.2-.16.43-.25.68-.25s.38.15.38.46c0,.14-.01.3-.04.46s-.05.32-.08.48c-.05.29-.09.54-.11.77s-.03.43-.03.61c0,.2.01.39.04.58s.06.35.1.5.1.26.17.35.15.13.24.13c.12,0,.24-.01.36-.03s.28-.08.45-.17c.34-.18.69-.43,1.07-.74.13-.11.28-.24.45-.39s.34-.3.51-.46.33-.31.47-.47.27-.28.35-.39c.01-.02.03-.04.05-.07s.05-.06.07-.09.06-.06.09-.08.07-.03.1-.03c.06,0,.11,0,.14.03s.06.07.1.16c.04.1.06.18.06.25ZM19.33,1.09c0,.13-.02.25-.06.37s-.1.22-.17.33c-.15.21-.38.31-.69.31-.11,0-.22,0-.33-.03s-.21-.05-.3-.08-.16-.08-.22-.13-.09-.12-.09-.19c0-.12.03-.25.09-.38s.14-.26.24-.38.21-.21.33-.29.23-.11.34-.11c.14,0,.26,0,.36.03s.19.05.27.09.13.1.17.18.06.18.06.29Z"/>
  <path class="uuid-b746198d-2a2e-44a9-8e07-9d9d02bc3be9" d="M27.72,4.55c0,.07-.02.14-.05.2s-.07.12-.12.16-.1.09-.16.13-.11.07-.16.11c-.18.08-.36.15-.57.21s-.4.11-.6.15-.39.08-.58.1-.36.05-.52.07c-.11.01-.22.02-.34.04s-.24.03-.35.04-.22.02-.32.04-.18.02-.25.04c-.09.33-.17.65-.24.96s-.14.59-.2.86c0,.05-.02.11-.04.19s-.03.17-.05.27-.03.2-.05.31-.03.21-.04.3-.02.18-.03.26-.01.13-.01.17c0,.14.02.23.06.29s.09.1.13.14c.08.06.14.12.2.18s.08.14.08.24c0,.08-.03.15-.08.22s-.12.13-.21.18-.17.09-.26.12-.18.05-.26.05c-.14,0-.27-.03-.38-.1s-.21-.16-.29-.27-.14-.24-.19-.39-.06-.29-.06-.45c0-.26.02-.54.06-.85s.1-.62.17-.93c.03-.14.07-.29.1-.45s.07-.32.1-.47.06-.28.08-.4.04-.19.05-.23c-.08,0-.2.02-.35.04s-.34.03-.55.03c-.18,0-.32-.01-.45-.03s-.22-.06-.3-.12-.13-.14-.17-.24-.05-.23-.05-.4c0-.09.03-.17.1-.23s.15-.1.25-.13.2-.05.3-.06.2-.01.28-.01c.04,0,.11,0,.21-.01s.2-.02.32-.03.23-.02.33-.03.19-.01.25-.01c.02,0,.04-.04.07-.11s.06-.17.09-.29.06-.25.1-.39.07-.28.1-.42.06-.27.08-.38.05-.21.06-.28c.04-.16.08-.35.11-.55s.07-.4.13-.58.14-.33.25-.46.26-.18.46-.18c.21,0,.37.05.47.14s.15.24.15.45c0,.1,0,.21-.03.35s-.05.27-.09.4c-.09.3-.17.58-.24.84s-.12.49-.16.68-.08.4-.11.62c.16,0,.31,0,.46,0s.3,0,.45-.01.31-.01.48-.03.35-.03.54-.05c.23-.03.42-.05.57-.08s.29-.05.41-.08.23-.04.33-.06.2-.02.3-.02c.05,0,.11.01.16.04s.07.1.07.21Z"/>
  <path class="uuid-b746198d-2a2e-44a9-8e07-9d9d02bc3be9" d="M33.53,4.55c0,.07-.02.15-.07.24s-.11.17-.19.25-.16.17-.26.25-.2.16-.29.23-.19.13-.28.18-.16.09-.22.12c-.11.04-.24.08-.41.12s-.34.07-.52.09-.36.05-.53.06-.31.02-.43.02c-.03,0-.07,0-.11,0s-.1-.01-.16-.03-.11-.03-.17-.04-.1-.04-.14-.07c.04.09.07.19.07.3s0,.21,0,.32c0,.07,0,.16-.02.26s-.04.21-.06.31-.06.21-.09.3-.07.18-.11.25c-.1.17-.2.32-.31.46s-.24.27-.37.39-.29.23-.46.34-.37.21-.6.31c-.24.11-.48.18-.73.22s-.49.06-.75.06c-.19,0-.36-.05-.51-.15s-.27-.23-.38-.4-.18-.36-.23-.58-.08-.45-.08-.69c0-.06,0-.13.01-.22s.02-.18.04-.27.04-.18.06-.26.04-.16.06-.22c.05-.16.13-.35.24-.56s.23-.43.37-.65.3-.44.47-.65.35-.4.55-.57.39-.3.6-.4.42-.15.63-.15c.09,0,.16,0,.22.03s.1.04.13.07.07.06.1.1.06.07.1.11c.03,0,.06-.01.08-.02s.06,0,.09,0c.12,0,.24.05.36.14s.24.2.36.31c.05.05.11.1.17.16s.11.1.16.14.09.07.13.1.06.04.08.04c.1,0,.21,0,.33,0s.24,0,.36-.01.24-.01.36-.03.22-.03.31-.04c.01,0,.06-.02.15-.04s.2-.05.33-.08.26-.07.41-.11.29-.08.41-.11.24-.06.33-.08.15-.03.16-.03c.08,0,.14,0,.19.03s.07.07.07.16ZM26.76,8.46c.32,0,.6-.08.84-.25s.45-.39.62-.67.3-.6.39-.96.14-.73.14-1.1c-.03-.06-.07-.12-.12-.18s-.11-.12-.18-.17-.13-.09-.21-.12-.13-.05-.19-.05c-.09,0-.2.04-.3.11s-.21.15-.3.23-.19.18-.28.31-.18.27-.25.42-.15.32-.22.5-.12.35-.17.52-.08.33-.11.5-.04.3-.04.43c0,.06,0,.12.03.18s.05.11.08.16.07.08.12.11.1.04.15.04Z"/>
  <path class="uuid-b746198d-2a2e-44a9-8e07-9d9d02bc3be9" d="M37.54,4.81c0,.16-.05.29-.15.4s-.23.16-.38.16c-.11,0-.2-.02-.28-.06s-.16-.08-.23-.13-.14-.09-.2-.13-.12-.06-.18-.06c-.07,0-.15.02-.23.07s-.17.11-.26.19-.18.17-.28.28-.19.22-.28.33c-.07.08-.14.18-.22.3s-.16.24-.25.36-.16.25-.23.38-.14.25-.19.36c-.05.1-.1.21-.16.34s-.11.26-.16.39-.09.26-.13.38-.06.22-.08.3c-.02.15-.05.29-.07.42s-.06.24-.1.33-.1.16-.16.21-.16.08-.28.08c-.21,0-.37-.04-.47-.13s-.18-.21-.23-.35-.07-.29-.08-.46-.02-.33-.04-.49c-.01-.1-.02-.2-.03-.3s-.01-.21-.02-.32-.01-.23-.01-.36,0-.27,0-.42c0-.2,0-.42.02-.67s.03-.48.06-.71.04-.43.07-.6.05-.29.07-.35c.04-.11.09-.21.16-.3s.14-.18.22-.25.16-.13.25-.17.17-.06.25-.06c.07,0,.15,0,.23.03s.14.05.21.1.11.11.15.18.06.17.06.28c0,.03,0,.07-.03.13s-.04.15-.08.26c-.04.12-.07.26-.12.42s-.08.32-.12.49-.07.33-.1.5-.04.31-.05.44c.02-.04.05-.11.11-.21s.1-.21.16-.32.11-.22.17-.32.1-.18.12-.23c.11-.19.24-.39.39-.61s.32-.41.51-.59.4-.33.64-.45.5-.18.79-.18c.22,0,.41.03.57.1s.29.15.39.25.18.23.23.36.07.27.07.41Z"/>
  <path class="uuid-b746198d-2a2e-44a9-8e07-9d9d02bc3be9" d="M50.5.75c0,.2-.02.46-.07.77s-.11.69-.18,1.11c-.09.46-.18.96-.27,1.5s-.16,1.08-.21,1.64c0,.03,0,.1-.01.21s-.02.25-.03.42-.02.36-.04.57-.03.44-.04.67-.02.48-.03.72-.01.49-.01.72c0,.13-.02.25-.07.35s-.11.19-.2.26-.18.13-.29.16-.22.06-.35.06c-.07,0-.15-.01-.23-.04s-.16-.07-.23-.13-.13-.13-.18-.21-.08-.19-.08-.3c0-.08,0-.19.03-.33s.04-.3.06-.47.05-.36.08-.56.06-.4.08-.59.05-.38.06-.56.03-.33.03-.46c0-.07,0-.13-.02-.19s-.04-.08-.1-.08c-.12,0-.28,0-.47.02s-.41.03-.62.05-.43.03-.63.05-.37.02-.5.02c-.03,0-.09,0-.2,0s-.23.01-.38.02-.3.02-.47.03-.33.03-.47.04-.28.02-.38.04-.17.03-.2.04c-.02.02-.04.1-.07.24s-.05.3-.08.49-.05.37-.07.56-.03.34-.04.46c0,.25-.01.49-.04.72s-.08.44-.15.63-.17.33-.28.44-.26.17-.44.17c-.11,0-.21-.03-.3-.08s-.16-.12-.23-.21-.11-.18-.15-.28-.05-.19-.05-.28,0-.18.03-.29.04-.22.06-.33.04-.21.06-.3.03-.16.04-.2c.05-.24.1-.51.16-.83s.11-.65.16-1.02.11-.75.16-1.15.1-.81.15-1.23.1-.83.14-1.25.09-.81.13-1.2c0-.06.03-.12.07-.18s.09-.12.15-.18.13-.1.21-.13.16-.05.25-.05c.02,0,.04,0,.05,0s.03,0,.05,0c.15.03.27.07.36.11s.16.11.21.18.08.16.09.26.02.22.02.35c0,.25-.02.51-.05.78s-.08.55-.15.83c-.03.13-.05.26-.08.4s-.05.28-.07.42-.04.28-.05.41-.02.25-.02.37c0,.01.03.02.06.03s.07.01.11.02.09,0,.13,0,.08,0,.11,0c.06,0,.16,0,.3,0s.3,0,.49-.01.39-.02.61-.03.44-.02.67-.04.44-.03.65-.06.4-.05.57-.07.31-.06.42-.09.18-.07.21-.12c.02-.03.04-.11.08-.24s.07-.3.1-.5.07-.42.11-.68.07-.51.1-.79.06-.55.08-.83.03-.54.03-.79c0-.05.02-.11.06-.18s.09-.14.16-.21.15-.13.24-.17.19-.07.3-.07c.07,0,.15.01.24.04s.17.06.25.11.15.11.2.18.08.16.09.26Z"/>
  <path class="uuid-b746198d-2a2e-44a9-8e07-9d9d02bc3be9" d="M61.07,5.06c0,.05,0,.12-.02.19s-.03.14-.05.21-.04.13-.06.18-.04.09-.05.12c-.05.14-.12.29-.21.45s-.2.34-.32.51-.25.35-.39.52-.28.34-.42.5-.28.3-.42.44-.26.25-.37.34c-.14.12-.29.24-.46.35s-.34.23-.52.33-.37.18-.56.24-.38.09-.57.09c-.16,0-.31-.04-.45-.11s-.25-.19-.34-.34-.16-.34-.2-.57-.05-.5-.03-.81c-.21.3-.45.57-.71.82s-.52.47-.79.65-.51.32-.75.42-.45.15-.62.15c-.5,0-.88-.15-1.14-.46s-.4-.74-.4-1.3c0-.12.01-.26.03-.43s.05-.35.09-.55.09-.41.15-.63.12-.44.18-.66c.01-.04.04-.11.07-.23s.07-.24.11-.38.08-.26.12-.38.07-.19.09-.23c.07-.14.14-.25.23-.33s.21-.12.37-.12c.22,0,.39.04.51.13s.18.24.18.46c0,.05-.01.14-.04.25s-.06.24-.1.37-.08.26-.12.38-.08.21-.11.28c-.12.36-.22.69-.3,1s-.13.59-.13.85c0,.23.04.4.11.52s.13.17.19.17c.15,0,.31-.03.47-.1s.33-.16.5-.27.33-.24.48-.39.3-.3.44-.46.26-.31.38-.47.2-.3.27-.43c.05-.09.1-.18.13-.26s.08-.17.12-.26.08-.19.13-.3.11-.24.18-.39c.04-.08.08-.16.11-.24s.08-.14.12-.2.09-.11.15-.14.12-.05.19-.05c.08,0,.16,0,.23.02s.15.04.21.08.11.09.15.15.06.14.06.23c-.05.17-.09.32-.12.44s-.07.25-.1.38-.06.25-.08.35c-.02.11-.04.23-.06.37s-.04.27-.05.4-.03.26-.04.38-.01.22-.01.3c0,.2.01.37.04.5s.08.2.14.2c.21,0,.43-.06.66-.19s.47-.29.71-.51c.15-.13.32-.29.52-.5s.39-.42.59-.64.39-.46.57-.7.34-.46.46-.67c.05-.09.12-.17.2-.23s.17-.1.25-.1c.01,0,.03,0,.05,0s.04.02.06.04.04.06.05.1.02.1.02.17Z"/>
  <path class="uuid-b746198d-2a2e-44a9-8e07-9d9d02bc3be9" d="M64.73,6.17c0,.39-.07.77-.2,1.15s-.31.74-.53,1.08-.48.66-.77.96-.6.55-.91.78-.64.41-.97.54-.64.22-.93.25c-.1,0-.2-.03-.3-.07s-.19-.09-.28-.15-.15-.12-.2-.19-.08-.13-.08-.19v-.04s-.04,0-.06,0c-.08,0-.15-.02-.21-.06s-.11-.09-.15-.15-.07-.13-.09-.21-.03-.16-.03-.24c0-.07.02-.2.06-.37s.09-.37.15-.61c.08-.3.14-.56.19-.8s.1-.47.14-.7.09-.47.13-.71.1-.53.17-.84c.06-.29.12-.56.18-.82s.12-.52.19-.77.14-.5.21-.76.16-.51.26-.78c.16-.46.32-.81.47-1.02s.31-.33.49-.33c.07,0,.14,0,.21.02s.15.04.21.08.11.1.16.18.06.18.06.31-.01.26-.04.4-.07.28-.11.41-.09.27-.14.4-.09.25-.14.37c-.05.13-.1.27-.16.42s-.11.3-.16.46-.1.31-.16.46-.1.3-.14.43c-.01.04-.04.12-.08.25s-.09.28-.15.46-.11.36-.16.55-.1.37-.13.53c.2-.27.42-.52.67-.77s.51-.46.77-.66.53-.34.79-.46.49-.17.69-.17c.14,0,.29.02.44.06s.26.13.35.25c.05.07.1.16.14.25s.07.18.09.27.04.18.05.27.01.17.01.25ZM60.29,9.43c-.02.06-.05.13-.1.23s-.1.17-.14.23c.2-.02.41-.06.64-.13s.46-.16.69-.28.45-.25.67-.4.41-.32.58-.5c.15-.16.29-.33.4-.51s.22-.37.3-.56.14-.38.19-.57.06-.36.06-.53c0-.11-.02-.2-.05-.28s-.09-.11-.15-.11c-.18,0-.37.05-.57.16s-.41.25-.62.42-.41.38-.61.62-.38.47-.55.73-.32.5-.44.76-.22.49-.28.71Z"/>
</svg>