<?xml version="1.0" encoding="UTF-8"?>
<svg id="uuid-668691bf-d9e7-4618-96d4-c12ac703e23b" data-name="Layer_1" xmlns="http://www.w3.org/2000/svg" viewBox="0 0 16 12.12">
  <defs>
    <style>
      .uuid-96e276dc-ad38-4791-a44f-f3c80824eaaf {
        fill: #2772cc;
      }

      .uuid-6b6309b2-09ad-4b2b-81fc-bd0b22c635c8 {
        fill: #e5e5e5;
      }
    </style>
  </defs>
  <path class="uuid-6b6309b2-09ad-4b2b-81fc-bd0b22c635c8" d="M3.49,12.12C.46,12.12-.11,10.33.02,8.3h2.45c0,1.12.05,2.06,1.4,2.06.83,0,1.23-.54,1.23-1.33C5.1,6.92.16,6.79.16,3.3.16,1.46,1.04,0,4.03,0c2.39,0,3.57,1.07,3.41,3.52h-2.39c0-.88-.15-1.77-1.14-1.77-.8,0-1.27.44-1.27,1.25,0,2.23,4.94,2.03,4.94,5.72,0,3.04-2.23,3.39-4.09,3.39Z"/>
  <path class="uuid-96e276dc-ad38-4791-a44f-f3c80824eaaf" d="M8.42,6.06c0-3.1,0-6.06,4.04-6.06,2.5,0,3.51,1.38,3.41,3.9h-2.4c0-1.56-.28-2.14-1.01-2.14-1.38,0-1.56,1.3-1.56,4.3s.18,4.3,1.56,4.3c1.14,0,1.09-1.46,1.12-2.39h2.42c0,3.13-1.25,4.14-3.54,4.14-4.04,0-4.04-2.99-4.04-6.06Z"/>
</svg>